<svg id="Слой_1" data-name="Слой 1" xmlns="http://www.w3.org/2000/svg" viewBox="0 0 100 100"><defs><style>.cls-1{fill:#3c3c3b;}</style></defs><title>bonus-1</title><path class="cls-1" d="M61.84,15.44h2.52a1.26,1.26,0,0,0,.31.19c3.43.89,5.29,3.23,5.24,6.71A11.45,11.45,0,0,1,66,30.52c-.73.71-1.54,1.35-2.57,2.26H73.86V47.05H70.41V72.17H27.3V47H23.85V32.71H35.47c0-.16,0-.22,0-.23l-.92-.64a11.68,11.68,0,0,1-4.8-5.65c-1.78-5.1,1.7-9.76,6.95-9.21a8.07,8.07,0,0,1,5.48,2.79,24.84,24.84,0,0,1,3.28,4.72c1.1,2.18,1.84,4.54,2.74,6.81.27-.74.51-1.54.85-2.3C51.63,22.92,54.69,17.24,61.84,15.44ZM45.19,68.54V45.32H31V68.54Zm21.54,0V45.32H52.55V68.57ZM27.38,43.36H45.17v-7H27.38Zm43-7H52.55v7h17.8ZM51.95,32.69a9.24,9.24,0,0,0,2.81,0c3.7-1.35,7.2-3.13,9.59-6.39a9.19,9.19,0,0,0,1.48-4c.24-1.72-.91-2.73-2.65-2.75a6.71,6.71,0,0,0-4.64,1.95C55.21,24.45,53.39,28.37,51.95,32.69Zm-8.22-1.2a18.05,18.05,0,0,0-4.28-8.74,6.84,6.84,0,0,0-2.61-1.64c-2.39-.73-4.06.88-3.42,3.3A6.11,6.11,0,0,0,35,27C37.37,29.4,40.41,30.56,43.73,31.49Z"/></svg>