<svg id="Слой_1" data-name="Слой 1" xmlns="http://www.w3.org/2000/svg" viewBox="0 0 330.28 105.2"><defs><style>.cls-1,.cls-2{fill:#414042;}.cls-2{font-size:62.28px;font-family:AdLibBT-Regular, AdLib WGL4 BT;letter-spacing:-0.04em;}.cls-3{letter-spacing:-0.01em;}.cls-4{fill:#7d8080;}.cls-5{fill:#ffed00;}.cls-6{font-size:11.06px;fill:#575756;font-family:Roboto-Bold, Roboto;font-weight:700;}.cls-7{letter-spacing:-0.01em;}.cls-8{letter-spacing:0em;}.cls-9{letter-spacing:-0.01em;}.cls-10{letter-spacing:-0.06em;}.cls-11{letter-spacing:-0.01em;}.cls-12{letter-spacing:0em;}.cls-13{letter-spacing:-0.04em;}.cls-14{letter-spacing:-0.01em;}.cls-15{letter-spacing:-0.02em;}</style></defs><title>logo_pancho</title><path class="cls-1" d="M318,39.58l-19,5.26,4.92-19.08C309.14,26.15,316.1,33,318,39.58Zm-13.61,2a1.78,1.78,0,1,0-2-2.94l.62.74-1,1.64,2-.25Zm5.17-10.76.7-.57a1.55,1.55,0,0,0-2.38-.2,1.63,1.63,0,0,0-.51,2.22c.09.18.28.3.49.51l.74-1v.42l1.71.44ZM312,34.69c-1.31,0-1.94.3-2.14,1.24a1.26,1.26,0,0,0,1,1.67c.93.21,1.66-.16,1.73-1.09A5,5,0,0,0,312,34.69Zm-7.41-1.79-1.2.53a6.65,6.65,0,0,0,.73,1,2.91,2.91,0,0,0,1.13.77,4.41,4.41,0,0,0,1.39-.07,3.4,3.4,0,0,0-.45-1.24A7.57,7.57,0,0,0,304.64,32.89Z"/><path class="cls-1" d="M293.08,48l-18.75,5.23a20.1,20.1,0,0,1,4.65-19Zm-15.34-6.14-.16-.58c-.53.53-1.37,1-1.49,1.6s.46,1.36.8,2c.09.16.46.18.79.29l.16-1.28a2.72,2.72,0,0,0,.64,0c.36-.09.71-.23,1.07-.35-.28-.22-.58-.43-.84-.67S278.06,42.19,277.74,41.85Zm10.44,6.73c1.11-.61,1.75-1.34,1.29-2.36-.25-.56-1-.91-1.52-1.31-.12-.09-.4.06-.63.1l.31,1c-.56.32-1.41.59-1.39.81.11,1.7,1.23.1,1.8.48Zm-12,.35-.16.61c.41.51.73,1.25,1.27,1.48a1.28,1.28,0,0,0,1.81-1A1.3,1.3,0,0,0,278,48.26C277.39,48.2,276.76,48.69,276.14,48.93Zm7-6.62c.68-.4,1.26-.53,1.42-.87.29-.62-1.12-2-2.19-2.15-.36,0-.76.33-1.14.51Z"/><path class="cls-1" d="M310.77,62.85l-14-13.74,19.18-5.33A21.79,21.79,0,0,1,310.77,62.85Zm2-11.28-1.95.08,1.21,1.48-.47.84a1.7,1.7,0,0,0,2.51-.91A1.66,1.66,0,0,0,313,50.72Zm-9.52-2.26c-1.07-1.11-1.94-.73-2.71.11s-.58,1.62.21,2.42l.66-.82c.6.31,1.37.88,1.51.75,1.12-1-.65-1.07-.65-1.83Zm6.86,7.16-.64-.16c-.48.43-1.15.77-1.4,1.31a1.23,1.23,0,0,0,1,1.78,1.26,1.26,0,0,0,1.72-1.13C310.86,57.7,310.4,57.08,310.16,56.48Zm-1.74-7.53,2.64-1.3c-.34-.35-.62-.86-1-1-.92-.33-2.67.34-2.62.94C307.45,48,307.92,48.3,308.43,48.95Z"/><path class="cls-1" d="M309.41,64a21.65,21.65,0,0,1-18.86,5.52l5-19.19Zm-11.13-9.75c-1.09-.82-2-.88-2.74,0a1.58,1.58,0,0,0,.16,2.44l.7-.78c.56.34,1.3,1,1.46.86,1.28-1-.51-1.14-.56-1.84Zm1.58,11.25-1.72-1.26.14,1.94-1,.35c.64,1.14,1.46,1.43,2.49.89s1.22-1.31.69-2.56Zm6.23-2,.15-.61c-.43-.5-.77-1.21-1.31-1.45a1.25,1.25,0,0,0-1.8,1,1.31,1.31,0,0,0,1.13,1.75C304.85,64.25,305.48,63.77,306.09,63.52Zm-10.75-.13c-.26-.87-.46-1.64-.75-2.38a1,1,0,0,0-.71,0,6,6,0,0,0-.75,2.15c0,.51.55,1,.86,1.55Z"/><path class="cls-1" d="M293.43,50l-4.8,18.58c-5.16-.48-12.67-7.68-13.86-13.37Zm-10.7,10.75a1.55,1.55,0,0,0-.66,2.41,1.62,1.62,0,0,0,2.54.53l-.61-.87c.43-.49,1.21-1.1,1.11-1.31-.69-1.55-1.2.4-1.94.16Zm6.7-9.08a1.65,1.65,0,0,0-.33,2.59,1.58,1.58,0,0,0,2.45.21l-.55-.63.86-1.82-1.92.46Zm.29,8.68.19-.63c-.4-.51-.7-1.21-1.22-1.49a1.23,1.23,0,0,0-1.84.88c-.27.88.07,1.66,1,1.76A5.29,5.29,0,0,0,289.73,60.36Zm-9.38-2.82.14-.62c-.44-.49-.79-1.21-1.33-1.42a1.3,1.3,0,0,0-1.78,1.06,1.26,1.26,0,0,0,1.17,1.69A5,5,0,0,0,280.34,57.54Zm5.93-4.61c-.61.6-1.09.86-1.15,1.2a3.57,3.57,0,0,0,.31,1.36c.37-.26.92-.45,1.06-.8S286.41,53.8,286.27,52.93Z"/><path class="cls-1" d="M299.23,27.56l-4.85,18.8L280.62,32.83C285.12,28.22,293.31,25.9,299.23,27.56ZM294.92,42l.26-.47c-.62-.4-1.25-1.11-1.87-1.11s-1.27.69-1.83,1.16c-.13.11,0,.57.05.9l.87-.23,1,1.69.79-1.9Zm-4.4-10.41c-.17-1.16-.75-1.81-1.85-1.72a1.66,1.66,0,0,0-1.67,2l1-.16c.27.66.5,1.68.71,1.67,1.41,0,.26-1.23.73-1.82Zm-2.47,7c1.29,0,2.08-.34,2.07-1.26a2.16,2.16,0,0,0-1-1.62,1.15,1.15,0,0,0-1.68,1.07A5,5,0,0,0,288.05,38.62Zm9.28-7.67.16-.64c-.42-.49-.75-1.19-1.29-1.43a1.27,1.27,0,0,0-1.79,1,1.23,1.23,0,0,0,1.12,1.7A5,5,0,0,0,297.33,30.95Zm-2.8,5.35-1.07.67a11.07,11.07,0,0,0,1,1.46c.08.08.58-.24.89-.37Z"/><path class="cls-1" d="M300.48,22.45a5.47,5.47,0,0,1-.07.78c-.23.94-.48,1.88-.75,2.92a23.06,23.06,0,0,0-20.3,5.75l-2.77-2.65A26.69,26.69,0,0,1,300.48,22.45Z"/><path class="cls-1" d="M304.26,24.38l.91-3.51c7.56,1.67,15.3,9.1,17.52,17.3l-3.56,1A23,23,0,0,0,304.26,24.38Z"/><path class="cls-1" d="M275.24,30.66,278,33.35a22.49,22.49,0,0,0-5,20.25l-3.69,1A26.57,26.57,0,0,1,275.24,30.66Z"/><path class="cls-1" d="M317,43.43l3.6-1c2.31,8.16-.91,18.74-6.39,23.7l-2.57-2.53a23.93,23.93,0,0,0,5.09-9.4A22.83,22.83,0,0,0,317,43.43Z"/><path class="cls-1" d="M269.88,56.53l3.61-1A23,23,0,0,0,288.36,70l-.46,1.78-.41,1.6C282.59,72.85,273.08,66.78,269.88,56.53Z"/><path class="cls-1" d="M310.2,65l2.73,2.69a26.68,26.68,0,0,1-23.48,6.49l.95-3.68A22.91,22.91,0,0,0,310.2,65Z"/><text class="cls-2" transform="translate(102.77 71.19) rotate(-0.9) scale(0.85 1)">P<tspan class="cls-3" x="42.04" y="0">anch</tspan></text><path class="cls-1" d="M48,77.56a3.38,3.38,0,0,1,.4-.3,19.48,19.48,0,0,0,3.85-3.12c.16-.15.36-.3.41-.49.09-.35.07-.74.53-.83s1-.23,1.52-.3a6.11,6.11,0,0,1,1.07,0c.78,0,1.12.54.77,1.23a10.7,10.7,0,0,1-.87,1.35.92.92,0,0,1-.48.4c-1.12.17-1.9,1-2.85,1.46a4.75,4.75,0,0,1-2.85.73,7.41,7.41,0,0,0-1.46.07Z"/><path class="cls-4" d="M71.41,50.82c-1.19,1-2.39,2-3.67,2.85a.54.54,0,0,0,.45,1,8.83,8.83,0,0,0,4.23-2.87A.69.69,0,0,0,71.41,50.82Z"/><path class="cls-4" d="M60.79,62.26a.89.89,0,0,0-.67-.69,1.53,1.53,0,0,0-.67,0,1.7,1.7,0,0,0-.58.17l-.23.13a.87.87,0,0,0-.38.89.86.86,0,0,0,.67.7l.23,0a1.62,1.62,0,0,0,.63,0,1.56,1.56,0,0,0,.61-.27,1.11,1.11,0,0,0,.31-.33A.86.86,0,0,0,60.79,62.26Z"/><path class="cls-1" d="M58.71,89.94c.2-.23.34-.44,0-.67s-.6-.33-.86-.16-.54.52-.41.72a1.17,1.17,0,0,0,1.07.21c-.23.18-.23.17-1.57.15a2,2,0,0,1-1.42-.63,23.38,23.38,0,0,1-4.71,3.3,43.07,43.07,0,0,1-5.58,1.9.74.74,0,0,0-.44-.8.72.72,0,0,0-.78.2.61.61,0,0,0,.05.86l0,0c-.83.24-.92.19-1.13-.53A35,35,0,0,1,41.73,88a18.82,18.82,0,0,1,.43-5.33L42.49,81c.1-.47.29-.64.85-.56,1,.14,1.94.29,2.88.5s1.84.52,2.76.79l.24.09c-.17.22-.51.39-.26.69s.38.44.73.36.6-.23.64-.6a25.92,25.92,0,0,1,4.36,2.58c1-.95,2.16-.62,3.32-.43-.33.33-.3.6.08.87a.87.87,0,0,0,1.13-.07.47.47,0,0,0,0-.37c0-.09-.14-.16-.17-.2a2.39,2.39,0,0,0,.55-.22,33.52,33.52,0,0,1,10.61-5c.37-.11.76-.2,1.14-.29a.34.34,0,0,1,.43.19l.37.85c-.46-.09-.88-.13-1.09.29a.46.46,0,0,0,.14.65c.46.33.53.34,1.21,0,.16.73.33,1.44.48,2.15a17.53,17.53,0,0,1,.21,4.25c-.05,1.68-.2,3.35-.31,5,0,.46,0,.92-.1,1.37a1.12,1.12,0,0,1-.29.63,1,1,0,0,1-.65.24,36.48,36.48,0,0,1-5.43-1.06c.18-.18.39-.36.15-.56a.54.54,0,0,0-.43-.09c-.15.09-.23.27-.36.45C63.11,92.81,61,91.31,58.71,89.94Zm-12-7.38c.28,0,.76-.46.75-.68s-.61-.66-.88-.64a.72.72,0,0,0-.69.66A.88.88,0,0,0,46.68,82.57Zm12,3.93a.81.81,0,0,0-.62.59.92.92,0,0,0,.87.71.76.76,0,0,0,.64-.59A.86.86,0,0,0,58.64,86.5Zm-5.86-2.26c0-.29-.27-.39-1-.39a.62.62,0,0,0-.54.68c0,.24.55.57.92.55S52.78,84.59,52.78,84.24Zm10.9,3.61a.69.69,0,0,0-.7.72c0,.21.54.58.8.58a.83.83,0,0,0,.66-.76C64.43,88,64.14,87.83,63.68,87.85ZM61,88.68a1.69,1.69,0,0,0,.29-.24,1.9,1.9,0,0,0,.17-.35.35.35,0,0,0-.18-.53c-.5-.28-.66-.3-.92-.09a.57.57,0,0,0-.22.73C60.28,88.51,60.59,88.61,61,88.68Zm-11.4-2c0-.31-.44-.63-.88-.63a.73.73,0,0,0-.61.5.88.88,0,0,0,.84.75A.64.64,0,0,0,49.6,86.71ZM63.13,83.3a.83.83,0,0,0-.74.67c0,.2.6.58.89.57s.68-.42.66-.63A.81.81,0,0,0,63.13,83.3Zm7.33,2.31a.69.69,0,0,0-.77-.66.82.82,0,0,0-.66.74c0,.19.5.58.72.58A.77.77,0,0,0,70.46,85.61Zm-3.06.2a.71.71,0,0,0-.76-.57.73.73,0,0,0-.68.7.69.69,0,0,0,.67.58A.78.78,0,0,0,67.4,85.81Zm.16,2.57a.65.65,0,0,0-.63-.58c-.45,0-.77.33-.76.67a.59.59,0,0,0,.68.62A.72.72,0,0,0,67.56,88.38Zm-18.28.15a.7.7,0,0,0-.7.6c0,.25.42.69.69.71s.72-.35.74-.56A.76.76,0,0,0,49.28,88.53ZM45.94,87.2c.26,0,.63-.37.62-.59a.91.91,0,0,0-.77-.69c-.3,0-.71.38-.7.64A.83.83,0,0,0,45.94,87.2Zm-1.79,2.15a.84.84,0,0,0-.71-.68.87.87,0,0,0-.65.67.92.92,0,0,0,.68.68A.79.79,0,0,0,44.14,89.34Zm3,2.92c.29,0,.66-.33.66-.58S47.19,91,47,91s-.68.37-.68.57S46.71,92.27,47.12,92.26ZM49,83.63a.75.75,0,0,0-.77.66c0,.3.31.54.7.53a.81.81,0,0,0,.76-.69C49.69,83.9,49.3,83.62,49,83.63Zm21,4a.67.67,0,0,0-.72.65A.63.63,0,0,0,70,89a.69.69,0,0,0,.64-.62A.7.7,0,0,0,70,87.67Zm-.58-6.48a.69.69,0,0,0-.71-.58.74.74,0,0,0-.71.68c0,.29.39.53.78.51S69.43,81.55,69.4,81.19ZM45.92,84.71c.45,0,.72-.26.71-.66,0-.24-.44-.51-.8-.49a.68.68,0,0,0-.64.65C45.21,84.55,45.46,84.73,45.92,84.71ZM70,83.26a.71.71,0,0,0-.76-.6.63.63,0,0,0-.67.61c0,.23.45.59.73.59A.67.67,0,0,0,70,83.26ZM68.49,93.62c0,.37.22.55.68.54s.7-.3.69-.57A.64.64,0,0,0,69.2,93C68.68,93,68.49,93.16,68.49,93.62ZM45.64,89.17a.79.79,0,0,0,.71.67.68.68,0,0,0,.63-.63.66.66,0,0,0-.72-.63C45.86,88.59,45.63,88.81,45.64,89.17Zm11.17-1.84a.8.8,0,0,0-.78-.71.9.9,0,0,0-.61.6c0,.29.43.64.79.64S56.82,87.72,56.81,87.33Zm-6.7,4.72c.29,0,.71-.36.71-.59s-.58-.65-.84-.65a.91.91,0,0,0-.65.64C49.34,91.7,49.8,92.06,50.11,92.05Zm16.14-8c.4,0,.76-.32.73-.61a.75.75,0,0,0-.77-.53c-.32,0-.75.36-.75.62S65.94,84.06,66.26,84ZM51.81,86.39a.55.55,0,0,0-.57.56.75.75,0,0,0,.77.64c.32,0,.6-.24.6-.48A.69.69,0,0,0,51.81,86.39Zm-7.56-4.82c0-.33-.27-.5-.72-.48a.65.65,0,0,0-.65.73c0,.24.34.47.66.46A.75.75,0,0,0,44.26,81.58ZM44.65,92a.67.67,0,0,0-.75-.63.61.61,0,0,0-.58.58.66.66,0,0,0,.75.63C44.52,92.56,44.66,92.42,44.65,92Zm-2.4-7.87a.58.58,0,0,0,.61.58.78.78,0,0,0,.72-.6.59.59,0,0,0-.61-.64A.73.73,0,0,0,42.25,84.13ZM67.17,91c0-.31-.29-.5-.72-.49a.68.68,0,0,0-.66.7c0,.26.31.48.68.46A.72.72,0,0,0,67.17,91Zm2.4.54c.46,0,.7-.24.69-.64s-.26-.51-.67-.5-.69.24-.66.59S69.08,91.54,69.57,91.52ZM64.37,86.4a.66.66,0,0,0-.63-.61.68.68,0,0,0-.69.64.64.64,0,0,0,.56.6C64,87,64.38,86.7,64.37,86.4Zm1.4-4c.4,0,.68-.26.67-.57a.69.69,0,0,0-.72-.52c-.35,0-.79.36-.78.6S65.37,82.4,65.77,82.38ZM52.4,88.13a.68.68,0,0,0-.72.61.63.63,0,0,0,.7.53c.31,0,.71-.32.72-.57A.65.65,0,0,0,52.4,88.13Zm-10-1.47a.62.62,0,0,0,.68.62.56.56,0,0,0,.58-.63.62.62,0,0,0-.68-.59A.56.56,0,0,0,42.45,86.67Zm18.48,3.7c.44,0,.61-.16.61-.57a.65.65,0,0,0-1.29.08C60.25,90.24,60.43,90.37,60.93,90.36Zm3.15.43a.73.73,0,0,0-.79-.54.58.58,0,0,0-.51.59.72.72,0,0,0,.72.58A.57.57,0,0,0,64.08,90.8Zm-11.84-.17a.8.8,0,0,0,.71.56.62.62,0,0,0,.5-.68.73.73,0,0,0-.7-.56A.66.66,0,0,0,52.24,90.63ZM61,84.81c0-.37-.26-.57-.55-.43a1.25,1.25,0,0,0-.53.44.76.76,0,0,0,0,.56c0,.07.24.14.36.14A.68.68,0,0,0,61,84.81Zm-13.33,9c.37,0,.59-.18.58-.46a.68.68,0,0,0-.64-.6.62.62,0,0,0-.59.64C47,93.66,47.15,93.77,47.64,93.76ZM56.11,86c.38,0,.73-.35.7-.65a.55.55,0,0,0-.64-.43.63.63,0,0,0-.62.65A.5.5,0,0,0,56.11,86ZM72.6,88c-.41,0-.84.32-.83.59s.36.42.6.41.66-.33.64-.59S72.93,88,72.6,88Zm-.25-1.88a.5.5,0,1,0,0-1,.62.62,0,0,0-.62.58A.51.51,0,0,0,72.35,86.16ZM56.19,88.68c-.44,0-.71.29-.68.54a.4.4,0,0,0,.48.36c.29,0,.64-.36.56-.6S56.27,88.74,56.19,88.68ZM71.65,83a.58.58,0,0,0,.52.56c.2,0,.52-.32.51-.5s-.35-.41-.58-.39S71.65,82.81,71.65,83Zm1.16,8a.43.43,0,0,0-.48-.4c-.3,0-.49.2-.47.45a.42.42,0,0,0,.5.38C72.64,91.39,72.82,91.22,72.81,91ZM72,94c.37-.05.56-.15.54-.4s-.15-.34-.42-.33-.44.14-.4.35S71.9,93.88,72,94Z"/><circle class="cls-5" cx="76.54" cy="51.16" r="14.27" transform="translate(13.91 118.64) rotate(-80.9)"/><circle class="cls-5" cx="37.82" cy="51.43" r="14.27" transform="translate(-18.94 80.63) rotate(-80.9)"/><path class="cls-1" d="M100,41.66c-.21-.69-.51-1.35-.74-2s-.6-1.23-1.46-1c0-.52.09-1,.08-1.41A56.58,56.58,0,0,0,96.36,26.8c-.28-1.27-.57-2.55-.91-3.81-.22-.83-.6-1.61-.78-2.45a16.18,16.18,0,0,0-1.29-3.35c-1-2.13-2.28-4.09-2.84-6.44C90,8.56,88.4,6.94,86.77,5.45a2.93,2.93,0,0,0-3.54-.07c-1,.76-1.9,1.6-2.85,2.4a4,4,0,0,1-.67.47,11.11,11.11,0,0,0-4.81,4.88c-1,2.07-1.81,4.25-2.71,6.38-.2.48-.43,1-.68,1.5-.74-.94-.74-.94-1.74-.89,0-.08-.11-.16-.16-.25-1-1.89-2.13-2.19-4-1.11-.44.26-.91.44-1.35.64-1.25-1.73-1.79-1.9-3.72-1.19-1.13.41-1.46.33-2.23-.57l-.21-.23c-.75-.75-1-.71-1.67.15-.12.16-.42.35-.57.3s-.27-.35-.33-.56a8.52,8.52,0,0,0-.29-1.17.85.85,0,0,0-1.37-.35c-1.06.68-1.07.68-1.38,1.88a3,3,0,0,1-.67,1.59c-.08.07,0,.29,0,.54l-1.59-.17a16.09,16.09,0,0,0-3-.28,31.14,31.14,0,0,0-4.16.75c-1,.22-2,.57-3,.85a7.9,7.9,0,0,1-.86.14,10.82,10.82,0,0,1,0-6.7c-1-.78-.75-1.81-.78-2.58-.33-.38-.65-.6-.76-.9a4.68,4.68,0,0,0-2.05-2.5c-.9-.52-1.6-1.38-2.82-1.43a11.76,11.76,0,0,0-3.6-.11c.35.8-.21,1.23-.71,1.7a10.75,10.75,0,0,0-1.83,1.82,36.4,36.4,0,0,0-2.89,5.13c-1.26,2.95-2.28,6-3.43,9-.46,1.19-.93,2.37-1.5,3.51-1.14,2.28-2.44,4.49-3.52,6.8C13.34,39.24,12.87,44,12.8,48.86a47.34,47.34,0,0,0,.62,8.26c.17,1.08.29,2.16.44,3.24l-.15.05-.34-.55a30.75,30.75,0,0,0,.26,7.7c.38,2.77.95,5.52,1.56,8.26a23.72,23.72,0,0,1,.7,7.39,4.81,4.81,0,0,0,.05.93,2,2,0,0,0,1.42,1.6.64.64,0,0,0,.82-.74c-.37-1.46-.07-2.95-.18-4.42a20.35,20.35,0,0,0-.3-2.77c-.42-2-1-3.87-1.41-5.83-.71-3.39-1.34-6.8-2-10.2a.61.61,0,0,1,0-.4,4.32,4.32,0,0,0,.43-2.2c.21-3.23.41-6.47.64-9.7,0-.68.15-1.36.25-2,.2-1.26.41-2.52.64-3.78a10.12,10.12,0,0,1,.3-1.31q.71-2.22,1.46-4.43l0-.31a.33.33,0,0,1,.23-.28,8.7,8.7,0,0,1,1-1.67c.17-.26.35-.51.55-.75a3,3,0,0,1,.48-.89,24.17,24.17,0,0,0,2.38-3.85,9.68,9.68,0,0,0,.92-1.95A26.7,26.7,0,0,1,25,24.15a3,3,0,0,0,.3-1.09,23.43,23.43,0,0,1,1.48-5.46,7.17,7.17,0,0,1,.46-1.14c.66-1.16,1.36-2.3,2-3.46a10.16,10.16,0,0,1,2.3-2.36.6.6,0,0,1,1,.18c.6,1.05,1.21,2.1,1.76,3.17.39.77.67,1.61,1,2.39a14.23,14.23,0,0,1,.91,1.79c.29,1,1,1.75,1.16,2.78,0,.15.19.28.27.44a1.77,1.77,0,0,1,.2.46c.11.5.17,1,.28,1.51.19.84.34.94,1.3,1,.23-.37.39-.86.73-1.09a5.28,5.28,0,0,1,3.15-1.37,9.16,9.16,0,0,0,1.54-.18c1.26-.18,2.51-.4,3.77-.53a14.14,14.14,0,0,0,3.85-.51.74.74,0,0,1,.3,0c1,.08,1,.08,1.5-.95a4.9,4.9,0,0,0,.44.56c1,.87,1.85,1,2.54.28s.66-.58,1.42-.23a2.43,2.43,0,0,0,2.54-.27c.25-.17.5-.32.78-.49l.56.57c1.34,1.38,2.39,1.24,3.49.52.34-.22.71-.39,1.11-.6a3.61,3.61,0,0,0,.41.67c.92.92,1.74,2.07,3.33,1.4a.63.63,0,0,1,.38.06c1.51.53,2.09.33,2.9-1,.3-.5.6-1,.91-1.51a31.93,31.93,0,0,0,2.63-4.28c.85-2,2.41-3.32,3.91-4.74a2.14,2.14,0,0,1,.66-.28,2.53,2.53,0,0,1-.55.93,13,13,0,0,0-3.51,6.47,5.18,5.18,0,0,1-.45,1.68A2.07,2.07,0,0,0,78,21.64c.13.24.16.53.28.78a8.07,8.07,0,0,0,.51.79,4.8,4.8,0,0,0,.53-.91c.28-1,.54-2,.78-3a14.32,14.32,0,0,1,2.86-5.89A5.58,5.58,0,0,1,86.63,11c.68-.07.83,0,1.09.65.33.87.56,1.78.94,2.63,1.14,2.56,2.32,5.09,3.48,7.64a36.75,36.75,0,0,1,2.22,5.88c.41,1.57.92,3.11,1.35,4.68.47,1.73.92,3.47,1.36,5.21.13.53.07,1.09.75,1.39.26.11.36.64.47,1a7.6,7.6,0,0,1,.31,1.31,1.63,1.63,0,0,0,1.11,1.33C100.1,42.1,100.15,42.09,100,41.66ZM85.22,7.35c.07-.14.08-.25.14-.28.36-.22.53,0,.72.36Zm.24,2.18c0-.3,0-.55,0-.63A1.3,1.3,0,0,1,87.06,9Z"/><path class="cls-1" d="M94.43,55.17a2.76,2.76,0,0,0,0-2.73,3.33,3.33,0,0,1-.2-2.12A11.06,11.06,0,0,0,94,44.7a2.3,2.3,0,0,1-.16-.81,16,16,0,0,0-.54-4.39c-.23-1.07-.43-2.16-.68-3.23a2.23,2.23,0,0,0-2.07-2c-.58,0-1.17-.09-1.75-.07-1.58,0-3.17.14-4.75.18s-3.25-.09-4.87,0-3.4.47-5.1.71c-.13,0-.32.1-.4,0-.59-.43-1.29-.12-1.89-.27a3.17,3.17,0,0,0-2.59.72,32.25,32.25,0,0,0-4.64,4.29A13.64,13.64,0,0,0,61.28,44a2.17,2.17,0,0,1-1.79,1.47,6.52,6.52,0,0,1-1.3.07c-1.17-.09-2.34-.29-3.51-.31a1.25,1.25,0,0,1-1.07-.6c-.52-.63-1.12-1.2-1.66-1.82a5.49,5.49,0,0,1-.8-1,9.56,9.56,0,0,0-4.8-4.67c-2-.82-4-1.66-6-2.45-.49-.19-.87-.58-1.52-.52-1.74.16-3.5.14-5.25.24-3.1.17-6.19.37-9.28.57-.76,0-1.51.12-2.26.2l-1.58.18a7.53,7.53,0,0,0-.6.8,6.06,6.06,0,0,0-.94,1.66.37.37,0,0,1-.14.21c0,.15-.05.3-.08.46.09.45.18.9.24,1.33a5.55,5.55,0,0,1,0,1.64,19.79,19.79,0,0,0-.1,5.37,39.85,39.85,0,0,0,3.42,12.33,7.73,7.73,0,0,0,2.33,3c1.45,1.12,3,2.15,4.46,3.2a3.75,3.75,0,0,0,1,.5,36.4,36.4,0,0,0,6.57,1.47,2.91,2.91,0,0,0,.52,0,29.24,29.24,0,0,0,8.52-1.49,12.9,12.9,0,0,0,6.21-4.62,3.87,3.87,0,0,1,.66-.68c.3-.72.71-1.39,1.09-2.1a.36.36,0,0,1,.18-.17,3,3,0,0,1,.1-.43,12.26,12.26,0,0,0,.52-3.77A5.67,5.67,0,0,1,54.36,53a7.3,7.3,0,0,0,0-2.05,1.46,1.46,0,0,1,.32-1,7.27,7.27,0,0,1,1.39-1.07,1.61,1.61,0,0,1,1.71.16c1.34,1.28,1.44,1.54,1.29,3.44,0,.17,0,.34-.05.52a9.25,9.25,0,0,0,1,4.9,22.78,22.78,0,0,0,3.3,4.77,8.66,8.66,0,0,0,3.19,2.57c1.3.53,2.56,1.18,3.82,1.81A13.36,13.36,0,0,0,77,68.57a19.59,19.59,0,0,0,8.58-2,14.8,14.8,0,0,0,5.92-6,5.19,5.19,0,0,1,.53-1,5.75,5.75,0,0,0,1.68-4.1c0-.09.07-.18.12-.28ZM23.83,41.33c-.61,1.14-1,2.39-1.51,3.59A13.76,13.76,0,0,1,22.06,38,6.23,6.23,0,0,1,26,38C25.27,39.13,24.45,40.18,23.83,41.33Zm2.91,2.79a.82.82,0,0,1,.15.05l-.3.53s-.05,0-.08,0,0-.07,0-.09C26.56,44.46,26.65,44.29,26.74,44.12Zm-1.63,7.33c.81-1.56,1.6-3.14,2.49-4.65,1-1.69,2.1-3.31,3.15-5,.19-.29.36-.59.57-.87.5-.65,1.05-1.19,2-.89a2.2,2.2,0,0,0,.62,0c-.19.27-.3.46-.44.63a60,60,0,0,0-4.08,6.18c-.31.53-.73,1-1.06,1.52-.09.14,0,.37,0,.65-.87.3-.86,1.46-1.59,2.12A12.54,12.54,0,0,0,25,53.52,2.3,2.3,0,0,1,25.11,51.45Zm.68,4.77a1.73,1.73,0,0,1,0-1.88,26.12,26.12,0,0,1,2.49-3.47,21.86,21.86,0,0,0,1.83-2.63c1.58-2.43,3.15-4.87,4.73-7.31a4,4,0,0,1,.25-.33c.48-.59.55-.61,1.19-.26.14.08.27.18.48.31-2.66,2.89-4.16,6.49-6.6,9.46l.47.27A3,3,0,0,0,29,51.9a48.1,48.1,0,0,1-3.09,4.3S25.88,56.21,25.79,56.22ZM37,61.8A19.41,19.41,0,0,1,36,64l-1.35-.22c.83-1.45,1.37-3,2.69-4.06C37.86,60.56,37.15,61.14,37,61.8Zm3.12.46c-.17.3-.38.58-.53.88-.46.9-.55.95-1.76.8l.19-.55C38.45,62,39.55,61,40.4,59.86c.47-.63.61-.63,1.24-.24Zm3-16.53-7.28,11c.44.79-.07,1.52-.62,2.26a26.94,26.94,0,0,0-1.69,2.44,11.55,11.55,0,0,0-.7,1.84,7.82,7.82,0,0,1-4.41-3.19,1,1,0,0,1-.1-.76c.15-.66.37-1.3.58-2l-.84,0c.53-.26.62-.69.61-1.28l-.86.32c.13-.32.24-.56.33-.8.22-.57.77-.3,1.24-.57l-.1,1.22.47-.82.39.25-1,1.15c.31-.05.46,0,.53-.09a14.81,14.81,0,0,0,3-3.49c.55-.9,1.28-1.69,1.91-2.54,1-1.38,2-2.77,3-4.15a17.21,17.21,0,0,1,1.09-1.37,1,1,0,0,0,0-1.6,2.53,2.53,0,0,0-.24-.19l-.8-.64c.25-.3.51-.61.77-.9s.56-.59.85-.89A10.16,10.16,0,0,1,46,43.56L43.83,46.2ZM42.32,62.8c.25-.54.25-.54.78-.64Zm4.69-11-.19-.16c.78-.46,0-1.26.54-1.84a13.08,13.08,0,0,0,1.26-1.88,1.81,1.81,0,0,0-1.73-1.28l.75-1.06A5.9,5.9,0,0,1,48.89,48a2,2,0,0,1-.34,1.73c-.43.55-.75,1.19-1.13,1.77C47.33,51.65,47.15,51.71,47,51.79Zm-.25,7c.37-1.15.81-1.59,1.46-1.4Zm22.6-17.87L63.71,49.1C64,46.46,67.55,42,69.36,40.93ZM63.69,56.1A8.91,8.91,0,0,1,63.16,55a1.14,1.14,0,0,1,.18-1.06c1.65-2.45,3.23-5,4.89-7.41,1.39-2.05,2.86-4.06,4.3-6.08s1.35-1.88,3.67-2c.09,0,.19,0,.34,0l-3.33,4c-1.17,1.4-2.35,2.79-3.49,4.22-.89,1.12-1.75,2.27-2.59,3.44A30.6,30.6,0,0,0,63.69,56.1Zm14.22,9.06,1.33-1.72.35,1.5Zm3.3-.29.79-1,.24.81Zm5.56-16.2c.16-.67.46-1.21.35-1.65s-.63-.85-1-1.3L84.8,47.55,84,46.43A1.06,1.06,0,0,0,82.53,46a2.72,2.72,0,0,0-1.95-1.66,2.42,2.42,0,0,1-.78,2.1c-1.93,2.47-3.9,4.9-5.75,7.43a27.53,27.53,0,0,0-2.19,3.74,2.64,2.64,0,0,0,.08,2.76c.06.09.08.24.15.26.81.27.73,1.06,1,1.65.11.26.28.59.51.68.42.17.7-.18.92-.5.33-.48.65-1,1-1.44a2,2,0,0,1,.34-.29c-.28.83-.53,1.56-.78,2.3s.5,1.37.66,2.08A3.64,3.64,0,0,1,73,64.63a25.28,25.28,0,0,1-3.41-1.92,22.71,22.71,0,0,1-2.12-1.64c-.44-.36-.44-.75.07-1.18.75.25,1.24-.23,1.85-.67a6.38,6.38,0,0,0,2.21-2.75A12.36,12.36,0,0,0,72,54.93c-.31,0-.55-.08-.61,0-.57.73-1.09,1.5-1.66,2.23A19.28,19.28,0,0,1,68.07,59c-.05-.94.59-1.51,1.06-2.17.64-.91,1.32-1.81,1.94-2.74.46-.68.79-1.45,1.3-2.09a27.83,27.83,0,0,0,2.34-4c.61-1.11,1.4-2.13,2.12-3.18.19-.28.43-.54.63-.82a1.75,1.75,0,0,0,.33-2l-.93,1.23c-1,1.36-2,2.71-3,4.07-.47.64-.93,1.28-1.36,1.95a10.12,10.12,0,0,0-.77,1.55c-.14.29-.77,0-.72.62,0,.18-.48.36-.58.6s-.47.48-.64.71c-.58.79-1.33,1.42-1.88,2.22-.17.24-.1.66-.28.86-.59.65-1.24,1.24-2,2a22.68,22.68,0,0,1,2.78-5.4c2-2.64,3.89-5.41,5.84-8.12,1.13-1.57,2.27-3.12,3.41-4.68.16-.22.33-.43.5-.65a17.51,17.51,0,0,1,6.84,2.23,3.78,3.78,0,0,1,1.69,1.88c.51,1.32,1.07,2.62,1.63,4Zm1.6,2.57-.21-.14.64-1,.2.13ZM84,36.84c2,0,3.93.3,5.9-.53a32.14,32.14,0,0,1,1,6.61A34.36,34.36,0,0,0,84,36.84Z"/><path class="cls-1" d="M65.13,77.27a3.42,3.42,0,0,1-2-.34A8.93,8.93,0,0,1,59.74,74a3.9,3.9,0,0,1-.83-1.64,16.58,16.58,0,0,1-.11-3.81c.11-1.15.66-2.28.34-3.47,0-.13.07-.31.16-.45a21.48,21.48,0,0,0,1.19-1.79,1.32,1.32,0,0,0-1.29-2,1.42,1.42,0,0,0-.51.06,1,1,0,0,1-1.39-.48,3.58,3.58,0,0,0-1.09-.9,2.75,2.75,0,0,0-2.07-.32c-.25.45-.52.9-.74,1.37A11,11,0,0,0,54,62.37a10.28,10.28,0,0,0,1.63,2.87,2.41,2.41,0,0,1,.72,1.42,17.66,17.66,0,0,1-.24,2.89c-.14,1.11-.31,2.22-.48,3.38.86,0,.83-.86,1.3-1.17a15.46,15.46,0,0,0,.64,1.74,13,13,0,0,0,3.29,4,5.26,5.26,0,0,0,3.34,1.24A17.11,17.11,0,0,0,70,77.44a1.11,1.11,0,0,0,.85-1.08Z"/><path class="cls-1" d="M32.74,22c.58-2-.3-6.14-1.62-7.44.26-.17.5-.36.75-.51.68-.4.68-.39,1.14.37a1.13,1.13,0,0,0,.37.34A2.9,2.9,0,0,1,34.73,17c.17,1.22.58,2.4.71,3.62a6.53,6.53,0,0,0,.65,2.49c-1.21.46-1.29,1.46-1.37,2.46a1.08,1.08,0,0,1-1.57-.2c-.25-.25-.44-.69-.92-.4a4.86,4.86,0,0,1-.95-1.17,30.1,30.1,0,0,1-.87-3c-.09-.33-.12-.68-.18-1.06.5,0,1,0,1.49.09.79.11.94.3.93,1.08,0,.31,0,.62,0,.93C32.66,21.88,32.71,21.94,32.74,22Z"/><path class="cls-1" d="M50.68,76.87c-.28.34-.43.65-.68.8a8.17,8.17,0,0,1-5,1.14,10.25,10.25,0,0,1-5.25-2,8.38,8.38,0,0,1-1.14-1C38,75.22,37.53,74.6,37,74a3,3,0,0,1-.46-.79c-.24-.64-.43-1.29-.67-2,1.48-.77,2.57.39,3.84.81,0,.36,0,.67.07,1a3.1,3.1,0,0,0,1.42,2.39c1.6.95,3.18,2,5.12,2C47.72,77.32,49.08,77.05,50.68,76.87Z"/><path class="cls-1" d="M88.16,21l-.45,1.23h.91l-.35,1.51,1.85-.86c0,.25.18.5.11.66a1.61,1.61,0,0,1-2.48.57l-1-.8c-.56.09-1,.9-1.79.48-.23-.13-.65-.2-.45-.66.59.14.6.15,1-.24s1-1,1.58-1.49c.24-.22.52-.4.78-.6Z"/><path class="cls-1" d="M82.62,22c.48-.3.94-.55,1.36-.85s.9-.75,1.38-1.07a.68.68,0,0,1,.65,0,.68.68,0,0,1,.1.63,3.18,3.18,0,0,1-2.29,2,1.22,1.22,0,0,1-.64-.14A2.56,2.56,0,0,1,82.62,22Z"/><path class="cls-1" d="M29.2,23.89l-.81-2.46c.36.14.59.24.83.32a1.54,1.54,0,0,1,1.21,1.82,1,1,0,0,1-.34.67c-.15.08-.46-.12-.69-.21a1.06,1.06,0,0,1-.24-.18Z"/><path class="cls-1" d="M63.87,68.09c0-1.09,1.32-.8,1.53-1.62.86.47,1.05,1.26.57,1.88-.32.4-.75.32-1.13.21A5.54,5.54,0,0,1,63.87,68.09Z"/><path class="cls-1" d="M29.16,23.85a1.92,1.92,0,0,1-.92,1.71c-1-.78-1-.87-.54-2.73l1.49,1.06Z"/><path class="cls-1" d="M47.39,69l1.68-.17a.72.72,0,0,1,.34,1c-.11.24-.44.58-.63.55a3.42,3.42,0,0,1-1.17-.5A.6.6,0,0,1,47.39,69Z"/><path class="cls-1" d="M44.21,69.77a3.05,3.05,0,0,1,0,.65c-.1.78-.5,1-1.2.55-.33-.19-.63-.45-1.1-.79C42.8,69.88,43.33,69.18,44.21,69.77Z"/><path class="cls-1" d="M45.71,67.91a3.2,3.2,0,0,1,.61.79c.07.17-.13.48-.28.68a.48.48,0,0,1-.45.09,6.84,6.84,0,0,1-1.16-.65.62.62,0,0,1-.13-.52c0-.1.23-.2.37-.24C45,68,45.26,68,45.71,67.91Z"/><path class="cls-1" d="M64.68,71.15c.34-.34.61-.64.91-.91s.72-.33,1,0a.81.81,0,0,1-.17,1.18A1.28,1.28,0,0,1,64.68,71.15Z"/><path class="cls-1" d="M42.91,72.93c.43,0,.72,0,1,0a.79.79,0,0,1,.78,1.16c-.07.13-.3.31-.38.28a4.66,4.66,0,0,1-1.25-.63C42.91,73.62,43,73.23,42.91,72.93Z"/><path class="cls-1" d="M67.54,72c.29-.93.54-1.19,1.17-1.17a.72.72,0,0,1,.53.34,1,1,0,0,1-.48,1.36Z"/><path class="cls-1" d="M68.36,69.93l-1.27-.66c.43-.41.72-.72,1-1s.7-.18.76.24S69,69.55,68.36,69.93Z"/><path class="cls-1" d="M45,70.7a5.19,5.19,0,0,0,1,.1c.52-.07.72.29.89.65a.38.38,0,0,1-.35.58,2.45,2.45,0,0,1-1.07-.47C45.26,71.42,45.21,71.09,45,70.7Z"/><path class="cls-1" d="M47.28,56.79a16.63,16.63,0,0,0-1.66,2.39,11.45,11.45,0,0,0-1.42,2.37.67.67,0,0,0,1,.81,6.94,6.94,0,0,0,2.11-2.28,8.17,8.17,0,0,0,1.33-2.69C48.79,56.6,47.77,56.29,47.28,56.79Z"/><path class="cls-1" d="M44.67,43.72a19.08,19.08,0,0,0-2.72,3.68.44.44,0,0,0,.55.58A7.54,7.54,0,0,0,46,44.54C46.41,43.75,45.23,43.08,44.67,43.72Z"/><path class="cls-1" d="M49,47.45a3.11,3.11,0,0,0-.74-1.14,4.71,4.71,0,0,0,0-.52c0-.58-.81-.58-1-.17-.32.59-.53,1.26-.83,1.87a9.75,9.75,0,0,0-.69,1.78c-.1.36.39.61.66.41a4.62,4.62,0,0,0,1.47-2l0,.08L48,48a.61.61,0,0,0-.34.49,3.9,3.9,0,0,1-.78,1.36c-.33.5-.67,1-1,1.51A8.21,8.21,0,0,0,44.66,54a.48.48,0,0,0,.74.46,9.62,9.62,0,0,0,2.13-2.8,16.26,16.26,0,0,0,1.33-2.24.28.28,0,0,0,.25-.13A1.82,1.82,0,0,0,49,47.45Z"/><path class="cls-1" d="M40.78,61.66l-.23.06.15-.24A3.51,3.51,0,0,0,41.65,59a.45.45,0,0,0-.6-.36c-.9.24-1.36,1.15-1.81,1.9a8.61,8.61,0,0,0-1.37,2.73.6.6,0,0,0,.93.57,3.26,3.26,0,0,0,.33-.26,1.69,1.69,0,0,0,1.22-.3,2,2,0,0,0,1-.89A.55.55,0,0,0,40.78,61.66Z"/><path class="cls-1" d="M38.54,59.55a.47.47,0,0,0-.63-.38,3.13,3.13,0,0,0-1.62,1.35,7.85,7.85,0,0,0-1.2,2.11c-.23.75.61,1.84,1.38,1.13a8.17,8.17,0,0,0,1.48-2A3.29,3.29,0,0,0,38.54,59.55Z"/><path class="cls-1" d="M82,46c.52-.79-.57-1.74-1.16-1-1.45,1.92-2.9,3.84-4.39,5.72a38.19,38.19,0,0,0-4.06,5.64.43.43,0,0,0,.26.6c-.33.43-.64.87-1,1.28A27.9,27.9,0,0,0,70,60.58a3.72,3.72,0,0,0-1,1.5.53.53,0,0,0,.31.62,1.19,1.19,0,0,0,1,1.18c.29.07.6.13.93.18a.69.69,0,0,0,.38.11,14.07,14.07,0,0,0,1.91.73.9.9,0,0,0,.61.5c1,.26,3,.66,3.55-.57a.59.59,0,0,0-.16-.68,1.94,1.94,0,0,0-1.5-.38H75.5l.37-.44a3.17,3.17,0,0,0,1-1.69A.62.62,0,0,0,76,61a2.87,2.87,0,0,0-1.37,1.12,3.33,3.33,0,0,0,.38-.91.34.34,0,0,0-.54-.33A13,13,0,0,0,73,62.49l0-.08.35-.51a.5.5,0,0,0-.17-.67l.82-1a11.37,11.37,0,0,0,1.94-2.83.49.49,0,0,0-.72-.59c-.19.13-.37.27-.54.41a4.93,4.93,0,0,0,.52-1.09.63.63,0,0,0-.3-.77,38.17,38.17,0,0,0,2.91-3.47C79.25,50,80.66,48,82,46Z"/><path class="cls-1" d="M35.69,39.91c-1.89.94-3.2,3-4.29,4.78-1.2,1.91-2.8,4-3,6.28a.52.52,0,0,0,.81.5C31,50.29,32,48.2,33.05,46.41c.51-.86,1-1.73,1.6-2.56s1.42-1.67,2-2.57C37.12,40.63,36.56,39.48,35.69,39.91Z"/><path class="cls-1" d="M75.63,39.12a.75.75,0,0,0-1.1-.92,14,14,0,0,0-2.73,2.52,30.46,30.46,0,0,0-2.64,3.11c-.74,1-1.43,2.09-2.09,3.17s-1.4,2-1.23,3.23a.56.56,0,0,0,.6.48c1.12,0,1.85-1,2.39-1.87.72-1.17,1.38-2.37,2.15-3.51s1.46-2.14,2.25-3.17c.56-.73,1.23-1.42,1.8-2.15a.2.2,0,0,0,.17-.07l.09,0a.3.3,0,0,0,.08-.13,1,1,0,0,0,.06-.25s0,0,0,0l.12-.19,0,0,.08-.13Z"/><text class="cls-6" transform="translate(105.55 90.02)"><tspan class="cls-7">Д</tspan><tspan class="cls-8" x="8.14" y="0">О</tspan><tspan class="cls-9" x="15.78" y="0">С</tspan><tspan class="cls-10" x="22.86" y="0">Т</tspan><tspan class="cls-8" x="29.05" y="0">АВЛЯЕМ ВК</tspan><tspan class="cls-11" x="90.84" y="0">У</tspan><tspan class="cls-12" x="97.69" y="0">СНОЕ </tspan><tspan class="cls-13" x="129.36" y="0">У</tspan><tspan class="cls-14" x="135.9" y="0">Д</tspan><tspan x="144.04" y="0">ОВ</tspan><tspan class="cls-15" x="158.74" y="0">О</tspan><tspan class="cls-8" x="166.21" y="0">ЛЬ</tspan><tspan class="cls-9" x="180.94" y="0">С</tspan><tspan class="cls-8" x="188.02" y="0">ТВИЕ</tspan></text></svg>