<svg id="Слой_1" data-name="Слой 1" xmlns="http://www.w3.org/2000/svg" viewBox="0 0 72.78 54.13"><defs><style>.cls-1{fill:none;stroke:#3c3c3b;stroke-miterlimit:10;stroke-width:2px;}</style></defs><title>man</title><path class="cls-1" d="M21.39,40.06c.27-1.3.58-2.59.78-3.89a1.79,1.79,0,0,1,1.27-1.6c1.85-.69,3.71-1.37,5.5-2.19.92-.43,1.67-1.22,2.57-1.73a1.72,1.72,0,0,0,.87-1.36,6.57,6.57,0,0,0-.11-1.55s-.06-.07-.07-.11c-.43-1.62-1.61-3-1.71-4.7a7.23,7.23,0,0,1,.11-.94,1.78,1.78,0,0,0,0-.63,9,9,0,0,1,.14-4.74,3.57,3.57,0,0,1,3.06-2.69c.92-.11,1.86-.13,2.79-.18a5.38,5.38,0,0,1,4,1.62,3.06,3.06,0,0,1,1,2.25c.06,1.43,0,2.87.14,4.27.09.25.3.52.26.75a8.5,8.5,0,0,1-1.14,3.43,5.59,5.59,0,0,0-.84,2.59,2.48,2.48,0,0,0,.81,1.86c2.24,2.27,5.33,2.72,8.06,3.94a2.23,2.23,0,0,1,1.56,1.82c.23,1.32.67,2.61,1,3.91v.13c-.24,0-.48.05-.73.05H22.12c-.24,0-.48,0-.73-.05Z"/></svg>