<svg id="Слой_1" data-name="Слой 1" xmlns="http://www.w3.org/2000/svg" viewBox="0 0 100 100"><defs><style>.cls-1{fill:#ffed00;}</style></defs><title>man1</title><path d="M49.78,69.24H39.59a2.56,2.56,0,0,1-2.46-1.53,3.68,3.68,0,0,1-.2-1.45c0-1.06-.05-2.12,0-3.17a10,10,0,0,1,1.25-4.59,8.35,8.35,0,0,1,4.21-3.59,32.85,32.85,0,0,1,3.13-1c.29-.09.49-.2.53-.5.14-.88.28-1.75.4-2.63a.51.51,0,0,0-.2-.37,11.41,11.41,0,0,1-3.52-5.18,2.9,2.9,0,0,0-.38-.56,1.66,1.66,0,0,1-.31-.48,21.13,21.13,0,0,1-.65-7c.39-3.47,2.06-5.24,5.51-5.83a16,16,0,0,1,6.68.19,5.78,5.78,0,0,1,4.63,5.35,22.2,22.2,0,0,1-.62,7.25.7.7,0,0,1-.24.42,1.6,1.6,0,0,0-.58.92,11.21,11.21,0,0,1-3.4,4.87.51.51,0,0,0-.19.37c.11.84.23,1.68.37,2.51.06.36.3.51.67.63a28.5,28.5,0,0,1,3.72,1.33,8,8,0,0,1,4.67,6.63,38,38,0,0,1,.17,5,2.59,2.59,0,0,1-2.72,2.36Zm6-1.17c0-.2,0-.35,0-.5q0-2.82,0-5.64c0-.49.21-.76.58-.76s.58.25.58.75c0,.08,0,.17,0,.25q0,2.74,0,5.47c0,.2-.06.43.28.43,1,0,2,0,3,0a1.41,1.41,0,0,0,1.39-1.35c0-1.36,0-2.73-.09-4.09a7.41,7.41,0,0,0-3-5.67A12.08,12.08,0,0,0,54,55.05a.87.87,0,0,0-.6.11c-1,.67-2,1.35-3,2.06a.84.84,0,0,1-1.13,0q-1.46-1-2.95-2a.86.86,0,0,0-.6-.11,18.63,18.63,0,0,0-1.81.51c-3.44,1.16-5.46,3.48-5.76,7.16C38,63.86,38,65,38,66.17c0,1.49.47,1.9,1.95,1.9h2.67c0-1.6,0-3.12,0-4.65,0-.57,0-1.14,0-1.7a.76.76,0,0,1,.4-.5c.1,0,.37.12.47.25a1.39,1.39,0,0,1,.26.69c0,.73,0,1.47,0,2.2,0,1,0,2.06,0,3.09,0,.67-.09.61.59.61h11.4ZM49.89,38.47c.23.63.51,1.32.72,2a.73.73,0,0,1-.14.63c-.14.13-.42.1-.65.11s-.17-.08-.26-.12L45.7,39c-.58-.31-.64-.27-.79.38-.38,1.67-.76,3.33-1.14,5a.54.54,0,0,0,0,.28,10.23,10.23,0,0,0,3,4.6,4.28,4.28,0,0,0,5.92.08,10,10,0,0,0,2.9-4.12A1.79,1.79,0,0,0,55.71,44c-.36-1.34-.62-2.71-.9-4.07,0-.22-.12-.3-.35-.31a4.78,4.78,0,0,1-1.08-.13C52.21,39.19,51.05,38.82,49.89,38.47Zm6.67,4.33h.12A17.81,17.81,0,0,0,57,36.71a4.61,4.61,0,0,0-3.76-4,14.93,14.93,0,0,0-7,0,4.39,4.39,0,0,0-3.61,3.8A19,19,0,0,0,42.55,40a27.54,27.54,0,0,0,.35,2.75.41.41,0,0,0,.18-.27c.26-1.21.54-2.42.77-3.63a1.15,1.15,0,0,1,1-1,2.41,2.41,0,0,1,1.2.18c.79.35,1.53.79,2.29,1.19l.62.31c-.16-.45-.3-.78-.41-1.12a1,1,0,0,1,1-1.34,1.83,1.83,0,0,1,.7.22,11,11,0,0,0,4.53,1.31,1.22,1.22,0,0,1,1.14,1.09C56.14,40.67,56.35,41.73,56.56,42.8Zm-4,11.47-.6-2.92a13.15,13.15,0,0,1-2.13.33,13.6,13.6,0,0,1-2.15-.32l-.6,2.91,2.74,1.9Z"/><path class="cls-1" d="M55.74,68.07H44.33c-.68,0-.59.06-.59-.61,0-1,0-2.06,0-3.09,0-.73,0-1.47,0-2.2a1.39,1.39,0,0,0-.26-.69c-.1-.14-.37-.3-.47-.25a.76.76,0,0,0-.4.5c0,.56,0,1.14,0,1.7,0,1.53,0,3.05,0,4.65H39.93c-1.48,0-1.94-.41-1.95-1.9,0-1.15,0-2.31.14-3.46.3-3.68,2.32-6,5.76-7.16a18.63,18.63,0,0,1,1.81-.51.86.86,0,0,1,.6.11q1.49,1,2.95,2a.84.84,0,0,0,1.13,0c1-.71,2-1.39,3-2.06a.87.87,0,0,1,.6-.11,12.08,12.08,0,0,1,4.55,1.9,7.41,7.41,0,0,1,3,5.67c.12,1.36.09,2.73.09,4.09a1.41,1.41,0,0,1-1.39,1.35c-1,0-2,0-3,0-.34,0-.28-.23-.28-.43q0-2.74,0-5.47c0-.08,0-.17,0-.25,0-.5-.21-.75-.58-.75s-.58.27-.58.76q0,2.82,0,5.64C55.74,67.72,55.74,67.87,55.74,68.07Z"/><path class="cls-1" d="M49.89,38.47c1.16.36,2.32.73,3.5,1.06a4.78,4.78,0,0,0,1.08.13c.22,0,.3.09.35.31.28,1.36.55,2.73.9,4.07a1.79,1.79,0,0,1-.09,1.23,10,10,0,0,1-2.9,4.12,4.28,4.28,0,0,1-5.92-.08,10.23,10.23,0,0,1-3-4.6.54.54,0,0,1,0-.28c.38-1.67.76-3.33,1.14-5,.15-.66.2-.69.79-.38l3.87,2.05c.09,0,.18.13.26.12s.51,0,.65-.11a.73.73,0,0,0,.14-.63C50.4,39.78,50.12,39.1,49.89,38.47Z"/><path class="cls-1" d="M56.56,42.8c-.21-1.06-.43-2.12-.63-3.18a1.22,1.22,0,0,0-1.14-1.09,11,11,0,0,1-4.53-1.31,1.83,1.83,0,0,0-.7-.22,1,1,0,0,0-1,1.34c.11.34.25.67.41,1.12l-.62-.31c-.76-.4-1.51-.84-2.29-1.19a2.41,2.41,0,0,0-1.2-.18,1.15,1.15,0,0,0-1,1c-.23,1.22-.51,2.42-.77,3.63a.41.41,0,0,1-.18.27A27.54,27.54,0,0,1,42.55,40a19,19,0,0,1,.13-3.45,4.39,4.39,0,0,1,3.61-3.8,14.93,14.93,0,0,1,7,0,4.61,4.61,0,0,1,3.76,4,17.81,17.81,0,0,1-.31,6.08Z"/><path class="cls-1" d="M52.55,54.26l-2.74,1.9-2.74-1.9.6-2.91a13.6,13.6,0,0,0,2.15.32,13.15,13.15,0,0,0,2.13-.33Z"/></svg>