<svg id="Слой_1" data-name="Слой 1" xmlns="http://www.w3.org/2000/svg" viewBox="0 0 72.78 54.13"><defs><style>.cls-1{fill:#ededed;}</style></defs><title>spice</title><path class="cls-1" d="M30,34.43a4.51,4.51,0,0,1,.58-.54c.49-.32,1-.58,1.5-.9a1.79,1.79,0,0,0,.78-2.17,4.91,4.91,0,0,1-.23-1.31,2,2,0,0,1,1.18-1.77,4,4,0,0,0-.09.88,2.08,2.08,0,0,0,.29.86.92.92,0,0,0,1.29.27,1,1,0,0,0,.46-1.39,11.73,11.73,0,0,0-1-1.25,2.88,2.88,0,0,1-.87-2.26,4,4,0,0,1,.92-1.93c.09-.12.19-.22.25-.29l-.2,1.63a.71.71,0,0,0,0,.11c0,.47.18.72.48.72s.5-.25.51-.73c0-.14,0-.29,0-.48a1.08,1.08,0,0,1,.58.91,3.81,3.81,0,0,1,0,.71.68.68,0,0,0,.38.74.51.51,0,0,0,.65-.08c.24-.21.5-.44.37-.82a2.64,2.64,0,0,0-.26-.57A2.35,2.35,0,0,1,37.74,22,6.91,6.91,0,0,0,38,23a.71.71,0,0,0,1.33.13,2.92,2.92,0,0,0,.5-1.07,2.32,2.32,0,0,1,3.76-1.55c0-.09.09-.18.12-.27a2.55,2.55,0,0,1,1.9-1.56h1.2v.82a2.26,2.26,0,0,1-.49.23c-.25.05-.52,0-.78.07a1.75,1.75,0,0,0-1.36.76,8,8,0,0,1,1.3.26,2,2,0,0,1,1.32,1.82v.52c0,.17,0,.34-.09.5a14.77,14.77,0,0,1-4.13,7.62A15,15,0,0,1,35.1,35.1c-.81.17-1.64.25-2.46.37H31.08A1.61,1.61,0,0,1,30,35Zm2.85-.3.59-.07A15,15,0,0,0,39.56,32a12.74,12.74,0,0,0,5.63-7.49,9.58,9.58,0,0,0,.31-1.82.68.68,0,0,0-.62-.71A1.85,1.85,0,0,0,44,22c-.43.19-.75.18-1-.27l0,0c-.73-.76-1.52-.57-1.82.44-.21.71-.35,1.45-.59,2.15a18.07,18.07,0,0,1-5.31,7.84C34.55,32.84,33.73,33.44,32.88,34.13Z"/></svg>