<svg id="Слой_1" data-name="Слой 1" xmlns="http://www.w3.org/2000/svg" viewBox="0 0 72.78 54.13"><defs><style>.cls-1{fill:#ededed;}</style></defs><title>vegan</title><path class="cls-1" d="M48.07,18.64A12.87,12.87,0,0,1,45.76,27a6.83,6.83,0,0,1-3.93,2.9,6.26,6.26,0,0,1-4.47-.38,1.06,1.06,0,0,0-.92,0A9.56,9.56,0,0,0,32.37,36a4.09,4.09,0,0,1,.34-3.12,40.34,40.34,0,0,1,2.42-3.47c.34-.48.71-.94,1-1.45.43-.73.78-1.5,1.21-2.23A7.35,7.35,0,0,1,41.74,22a5.38,5.38,0,0,0-4.19,1.73c-1.06,1.12-2,2.38-2.94,3.56-2-2.41-1.15-5.47,1.87-7.15a10.6,10.6,0,0,1,6.17-1A37.5,37.5,0,0,0,47,19,3.74,3.74,0,0,0,48.07,18.64Z"/><path class="cls-1" d="M25.9,19.49c1.14,0,2.19,0,3.24,0a4.19,4.19,0,0,1,3.17,1,2.09,2.09,0,0,1,.21,3.08c-.83-1.22-1.63-2.49-3.3-2.65A5.66,5.66,0,0,1,31.84,24a3.73,3.73,0,0,0,.65.82,4,4,0,0,1,1.28,2.62c-.55-.77-1.16-1.68-1.85-2.53a1,1,0,0,0-.9-.16,3.35,3.35,0,0,1-3.93-1.19A5.84,5.84,0,0,1,25.9,19.49Z"/></svg>