<svg id="Слой_1" data-name="Слой 1" xmlns="http://www.w3.org/2000/svg" viewBox="0 0 100 100"><defs><style>.cls-1{fill:#ffed00;}</style></defs><title>woman-1</title><path d="M61.57,53.95c.19.42.4.81.56,1.23a11.83,11.83,0,0,1,.75,4.08c0,.87,0,1.74,0,2.62a2.61,2.61,0,0,1-2.75,2.74H44.68c-1.64,0-3.27,0-4.91,0a2.62,2.62,0,0,1-2.58-1.94,1.12,1.12,0,0,1-.06-.28,21.13,21.13,0,0,1,.41-6.21c.22-.76.55-1.5.83-2.24l-2-.42c-.33-.07-.61-.2-.63-.59s.27-.52.58-.64a8.08,8.08,0,0,0,3.7-2.66,4.7,4.7,0,0,0,.69-4.16c-.41-1.66-.79-3.34-1.08-5a25.11,25.11,0,0,1-.13-2.91A11.77,11.77,0,0,1,40.26,33a8.55,8.55,0,0,1,3.59-4.72,5.69,5.69,0,0,1,5.94-.23c.34.18.57,0,.78-.14a5.3,5.3,0,0,1,4.54-.15,7.84,7.84,0,0,1,4.34,4.48,14.52,14.52,0,0,1,.93,7.9,28.21,28.21,0,0,1-1,4.83,5.12,5.12,0,0,0,2.33,6.3,16.83,16.83,0,0,0,2,1c.29.14.54.28.51.65s-.3.49-.61.56ZM42.93,38.13l-.16,0c-.55,0-.79-.17-.8-.54s.22-.58.79-.6a6.14,6.14,0,0,0,2.47-.65,9.33,9.33,0,0,0,3.21-2.73.57.57,0,0,1,1-.1c.19.17.38.35.58.52a12.45,12.45,0,0,0,7.74,3c.46,0,.69.23.67.58s-.27.55-.72.55H57a1.5,1.5,0,0,0,0,.15,11.65,11.65,0,0,1-4,8.24.4.4,0,0,0-.14.3,6.72,6.72,0,0,0,2.73,4.87,7.92,7.92,0,0,0,5,1.15c.37,0,.75-.07,1.23-.11l-.46-.31a7.78,7.78,0,0,1-2.84-3,6.06,6.06,0,0,1-.23-4.65,22.16,22.16,0,0,0,1-8.34,10.66,10.66,0,0,0-1.78-5.32,5.72,5.72,0,0,0-4-2.59,4.26,4.26,0,0,0-3,.65c-.43.29-.56.34-1,0a3.85,3.85,0,0,0-2.17-.72A5.42,5.42,0,0,0,42.55,31a11.54,11.54,0,0,0-1.91,7,26.2,26.2,0,0,0,1.2,7.14,5.58,5.58,0,0,1-.16,3.8,7.53,7.53,0,0,1-3,3.39l-.45.29a9.6,9.6,0,0,0,5.36-.54A6.25,6.25,0,0,0,47,47.67a1.37,1.37,0,0,0-.48-1.62,10.89,10.89,0,0,1-3.26-5.86C43.12,39.52,43,38.83,42.93,38.13Zm0,25.32c0-.63,0-1.21,0-1.8,0-1.44,0-2.89,0-4.33,0-.52.36-.82.77-.67s.37.4.37.7c0,1.88,0,3.76,0,5.64,0,.36.09.48.47.48,3.68,0,7.36,0,11,0l.44,0c0-.16,0-.3,0-.43q0-2.78,0-5.56c0-.16,0-.37.07-.47s.38-.35.56-.33.36.26.49.44,0,.26,0,.4c0,1.85,0,3.71,0,5.56,0,.31.08.43.41.42.9,0,1.8,0,2.7,0A1.45,1.45,0,0,0,61.74,62c0-1.28,0-2.56-.08-3.84a8.29,8.29,0,0,0-1.17-3.79.77.77,0,0,0-.74-.43,8.27,8.27,0,0,1-5.27-1.68c-.51-.41-1-.84-1.52-1.29a4.72,4.72,0,0,1-6.1-.14,6.85,6.85,0,0,1-2.57,2.22,9.18,9.18,0,0,1-4.11.9.62.62,0,0,0-.59.32,7,7,0,0,0-1.12,3.12c-.13,1.57-.16,3.15-.18,4.73a1.32,1.32,0,0,0,1.28,1.27C40.64,63.49,41.73,63.45,42.89,63.45Zm1.2-25.51c.08.59.12,1.17.25,1.74a10.2,10.2,0,0,0,3.13,5.7,3.53,3.53,0,0,0,5.08,0,10.57,10.57,0,0,0,3.32-7.07c0-.26-.06-.35-.32-.4a13.57,13.57,0,0,1-6.12-2.84L49,34.72A9.52,9.52,0,0,1,44.09,37.94Zm7.6,9.39a11.51,11.51,0,0,1-1.68.23,11.7,11.7,0,0,1-1.7-.23l-.8,2.57a3.54,3.54,0,0,0,4.78.17.46.46,0,0,0,.18-.37C52.22,48.89,51.94,48.1,51.68,47.33Z"/><path class="cls-1" d="M42.93,38.13c.11.69.19,1.38.35,2.05a10.89,10.89,0,0,0,3.26,5.86A1.37,1.37,0,0,1,47,47.67a6.25,6.25,0,0,1-3.45,4.5,9.6,9.6,0,0,1-5.36.54l.45-.29a7.53,7.53,0,0,0,3-3.39,5.58,5.58,0,0,0,.16-3.8,26.2,26.2,0,0,1-1.2-7.14,11.54,11.54,0,0,1,1.91-7,5.42,5.42,0,0,1,4.8-2.54,3.85,3.85,0,0,1,2.17.72c.41.3.54.25,1,0a4.26,4.26,0,0,1,3-.65,5.72,5.72,0,0,1,4,2.59,10.66,10.66,0,0,1,1.78,5.32,22.16,22.16,0,0,1-1,8.34,6.06,6.06,0,0,0,.23,4.65,7.78,7.78,0,0,0,2.84,3l.46.31c-.48,0-.86.1-1.23.11a7.92,7.92,0,0,1-5-1.15,6.72,6.72,0,0,1-2.73-4.87.4.4,0,0,1,.14-.3,11.65,11.65,0,0,0,4-8.24,1.5,1.5,0,0,1,0-.15h.63c.44,0,.71-.2.72-.55s-.22-.57-.67-.58A12.45,12.45,0,0,1,50,34c-.2-.16-.38-.35-.58-.52a.57.57,0,0,0-1,.1,9.33,9.33,0,0,1-3.21,2.73,6.14,6.14,0,0,1-2.47.65c-.58,0-.81.22-.79.6s.25.53.8.54Z"/><path class="cls-1" d="M42.89,63.45c-1.16,0-2.25,0-3.33,0a1.32,1.32,0,0,1-1.28-1.27c0-1.58,0-3.16.18-4.73a7,7,0,0,1,1.12-3.12.62.62,0,0,1,.59-.32,9.18,9.18,0,0,0,4.11-.9,6.85,6.85,0,0,0,2.57-2.22A4.72,4.72,0,0,0,53,51c.53.45,1,.88,1.52,1.29A8.27,8.27,0,0,0,59.74,54a.77.77,0,0,1,.74.43,8.29,8.29,0,0,1,1.17,3.79c.09,1.28.09,2.56.08,3.84a1.45,1.45,0,0,1-1.53,1.43c-.9,0-1.8,0-2.7,0-.33,0-.41-.1-.41-.42,0-1.85,0-3.71,0-5.56,0-.14,0-.31,0-.4s-.31-.42-.49-.44-.42.17-.56.33-.07.31-.07.47q0,2.78,0,5.56c0,.13,0,.27,0,.43l-.44,0c-3.68,0-7.36,0-11,0-.39,0-.48-.12-.47-.48,0-1.88,0-3.76,0-5.64,0-.31,0-.58-.37-.7s-.77.15-.77.67c0,1.44,0,2.89,0,4.33C42.89,62.24,42.89,62.82,42.89,63.45Z"/><path class="cls-1" d="M44.09,37.94A9.52,9.52,0,0,0,49,34.72l.42.33a13.57,13.57,0,0,0,6.12,2.84c.25,0,.34.14.32.4a10.57,10.57,0,0,1-3.32,7.07,3.53,3.53,0,0,1-5.08,0,10.2,10.2,0,0,1-3.13-5.7C44.21,39.12,44.17,38.53,44.09,37.94Z"/><path class="cls-1" d="M51.68,47.33c.26.77.53,1.56.78,2.36a.46.46,0,0,1-.18.37,3.54,3.54,0,0,1-4.78-.17l.8-2.57a11.7,11.7,0,0,0,1.7.23A11.51,11.51,0,0,0,51.68,47.33Z"/></svg>