<svg id="Слой_1" data-name="Слой 1" xmlns="http://www.w3.org/2000/svg" viewBox="0 0 50 50"><defs><style>.cls-1{fill:#ffed00;}.cls-2{fill:none;stroke:#000;stroke-miterlimit:10;stroke-width:3px;}</style></defs><title>napitki</title><path class="cls-1" d="M32.84,34.57c.78-5.52.65-9.55-1.63-14.74-1-2.23-2.16-4.62-2.13-7.09,0-2,.86-3.7,1.38-5.54.58-2-.32-2.08-2.55-2.38a36.19,36.19,0,0,0-5.29-.12c-.06,3.73,1.26,6.59-.1,10.38-1.18,3.27-3.16,6.55-3.94,9.91s.23,7.19.51,10.62c.2,2.38-1.4,7.52-.05,9.35a3.7,3.7,0,0,1,.71,1.6l.51.1c3.87,1,8.22.35,12.06-.52a4.88,4.88,0,0,1,.9-.12A26.87,26.87,0,0,1,32.84,34.57Z"/><path d="M26,48.42c-2-.18-3.95-.24-5.86-.55s-2.71-1.29-2.58-3.3a38.93,38.93,0,0,1,.65-4.9A20.78,20.78,0,0,0,18,30.82a14.56,14.56,0,0,1,1.37-11.07c.58-1,1-2.12,1.52-3.17,1-2.07.88-4.28.83-6.48a1.18,1.18,0,0,0-.29-.68c-.9-1-.69-2.28-.63-3.47a1.54,1.54,0,0,1,.6-.87,7.48,7.48,0,0,1,8.91,0c.87.71.92,3,.17,4.18a3.3,3.3,0,0,0-.46,1.38,13.31,13.31,0,0,0,1.83,8.13c.25.45.43.93.68,1.38a13.52,13.52,0,0,1,1.29,10.12,27.11,27.11,0,0,0,.21,12,14,14,0,0,1,.19,2.52c0,1.84-.58,2.78-2.42,3.09S27.91,48.24,26,48.42Zm0-1.92c1.67-.11,3.43-.2,5.18-.36a1.3,1.3,0,0,0,1.31-1.65c-.12-.91-.12-1.84-.32-2.73a25.76,25.76,0,0,1-.08-11.89A11.94,11.94,0,0,0,31,21c-1.76-3.22-3.19-6.54-2.8-10.35.08-.81-.48-.93-1.16-.88a11.8,11.8,0,0,1-2.14,0c-.82-.09-1.24.1-1.24,1a12.32,12.32,0,0,1-.18,3.61A47.67,47.67,0,0,1,20.81,21a12.25,12.25,0,0,0-1.17,8.11,27.44,27.44,0,0,1,.47,10.28c-.28,1.66-.46,3.34-.72,5-.18,1.14.39,1.66,1.43,1.75C22.5,46.3,24.19,46.39,26,46.5ZM25.81,8.43c.3-.33.4-.43.48-.54.31-.4.56-1,.95-1.14.73-.2.91.49,1.09,1.08,0,.11.47.1.72.15,0-.55.16-1.27-.11-1.62-1-1.23-5-1.23-6,0-.27.31-.2.94-.21,1.43,0,.15.26.3.4.45a5.78,5.78,0,0,1,.6-.92c.23-.24.56-.55.84-.54a1.36,1.36,0,0,1,.82.57A4.87,4.87,0,0,1,25.81,8.43Z"/><line class="cls-2" x1="18.63" y1="26.82" x2="32.44" y2="26.82"/><line class="cls-2" x1="19" y1="34.84" x2="32.82" y2="34.84"/></svg>