<svg id="Слой_1" data-name="Слой 1" xmlns="http://www.w3.org/2000/svg" viewBox="0 0 50 50"><defs><style>.cls-1{fill:#ffed00;}</style></defs><title>polovinki</title><path class="cls-1" d="M25.39,9.2C16.37,9.33,9.1,17,9.1,26.39s7.27,17.06,16.29,17.18Z"/><path class="cls-1" d="M27.83,6.13c9,.13,16.29,7.77,16.29,17.18S36.84,40.37,27.83,40.5Z"/><path d="M18.9,13a.63.63,0,0,0-.31.69.55.55,0,0,0,.51.48,1,1,0,0,0,.49-.13,12.95,12.95,0,0,1,5.85-1.67V11.08a13.89,13.89,0,0,0-5.09,1.17C19.85,12.46,19.37,12.72,18.9,13Z"/><path d="M25.43,42.5a15.37,15.37,0,0,1-4.29-.77c0-.06,0-.1,0-.14l.38-1.09c.44.12.87.24,1.29.34a14.5,14.5,0,0,0,2.58.34V39.92a12.72,12.72,0,0,1-2-.25c-.47-.1-.93-.23-1.43-.35l.1-.28,3.36-9.58V28.14a.58.58,0,0,0-.15-.09.6.6,0,0,0-.75.32c0,.08-.07.17-.1.26L20.09,41l-.1.28a15.38,15.38,0,0,1-5.3-3.69,16.6,16.6,0,0,1-4.15-8l1.22-.22c.17.6.32,1.19.52,1.76A14.77,14.77,0,0,0,18,38.72c.28.19.57.37.86.55a.6.6,0,0,0,.88-.21.63.63,0,0,0-.27-.88,13.5,13.5,0,0,1-3.79-3.3A14,14,0,0,1,13,29.27l0-.13,3.58-.65,6.84-1.25c.39-.07.6-.28.62-.61a.61.61,0,0,0-.73-.66l-1.49.27L10.52,28.32l-.2,0a16.84,16.84,0,0,1,.82-7.85A16.37,16.37,0,0,1,15.35,14l.41.5.4.5-.69.73a15.46,15.46,0,0,0-4,10.43.61.61,0,0,0,.47.65.57.57,0,0,0,.68-.34,1,1,0,0,0,.06-.37,15.12,15.12,0,0,1,.4-3.31,14.34,14.34,0,0,1,1.28-3.36,13.72,13.72,0,0,1,2.5-3.33l.1-.09.14.16,6.56,8.11.17.21a.59.59,0,0,0,.88.09.64.64,0,0,0,0-.9l-2.66-3.28-5.66-7-.14-.18a15.45,15.45,0,0,1,6.42-3.08,15.27,15.27,0,0,1,2.72-.34V8.5c-.33,0-.65,0-1,.06a17.06,17.06,0,0,0-14,10.33A18.22,18.22,0,0,0,11.9,36a16.81,16.81,0,0,0,7,6.15,16.06,16.06,0,0,0,6.23,1.56h.27Z"/><path d="M25.43,13.47l-.21-.11a1.64,1.64,0,0,0-2.13,1,1.74,1.74,0,0,0,1,2.21,1.59,1.59,0,0,0,1.37-.12Zm-1,2.11a.66.66,0,0,1-.38-.81.63.63,0,0,1,.8-.4.67.67,0,0,1,.39.81A.62.62,0,0,1,24.43,15.57Z"/><path d="M25.43,18.23l-.21-.11a1.64,1.64,0,0,0-2.13,1,1.74,1.74,0,0,0,1,2.21,1.59,1.59,0,0,0,1.37-.12Zm-1,2.11a.66.66,0,0,1-.38-.81.63.63,0,0,1,.8-.4.67.67,0,0,1,.39.81A.62.62,0,0,1,24.43,20.33Z"/><path d="M21.73,14.68a1.73,1.73,0,0,1,1,2.21,1.65,1.65,0,0,1-2.13,1,1.74,1.74,0,0,1-1-2.21A1.64,1.64,0,0,1,21.73,14.68Zm-.79,2.21a.62.62,0,0,0,.81-.41.67.67,0,0,0-.39-.81.63.63,0,0,0-.8.4A.66.66,0,0,0,20.94,16.9Z"/><path d="M16.76,18.38a1.73,1.73,0,0,1,2.09,1.21,1.65,1.65,0,0,1-1.12,2.08,1.74,1.74,0,0,1-2.09-1.21A1.64,1.64,0,0,1,16.76,18.38Zm.67,2.25a.62.62,0,0,0,.41-.8.67.67,0,0,0-.79-.42.63.63,0,0,0-.41.8A.66.66,0,0,0,17.43,20.63Z"/><path d="M19.57,22.22a1.73,1.73,0,0,1,2.09,1.21,1.65,1.65,0,0,1-1.12,2.08,1.74,1.74,0,0,1-2.09-1.21A1.64,1.64,0,0,1,19.57,22.22Zm.67,2.25a.62.62,0,0,0,.41-.8.67.67,0,0,0-.79-.42.63.63,0,0,0-.41.8A.66.66,0,0,0,20.24,24.47Z"/><path d="M14.73,22a1.73,1.73,0,0,1,2.09,1.21,1.65,1.65,0,0,1-1.12,2.08A1.74,1.74,0,0,1,13.61,24,1.64,1.64,0,0,1,14.73,22Zm.67,2.25a.62.62,0,0,0,.41-.8A.67.67,0,0,0,15,23a.63.63,0,0,0-.41.8A.66.66,0,0,0,15.4,24.23Z"/><path d="M14.91,31.29a1.73,1.73,0,0,1,1.9-1.49,1.65,1.65,0,0,1,1.51,1.81,1.74,1.74,0,0,1-1.9,1.49A1.64,1.64,0,0,1,14.91,31.29Zm2.34.22a.62.62,0,0,0-.59-.68.67.67,0,0,0-.69.58.63.63,0,0,0,.59.67A.66.66,0,0,0,17.25,31.51Z"/><path d="M19.53,30.11a1.73,1.73,0,0,1,1.9-1.49,1.65,1.65,0,0,1,1.51,1.81A1.74,1.74,0,0,1,21,31.92,1.64,1.64,0,0,1,19.53,30.11Zm2.34.22a.62.62,0,0,0-.59-.68.67.67,0,0,0-.69.58.63.63,0,0,0,.59.67A.66.66,0,0,0,21.87,30.33Z"/><path d="M17.79,34.65a1.73,1.73,0,0,1,1.9-1.49A1.65,1.65,0,0,1,21.2,35a1.74,1.74,0,0,1-1.9,1.49A1.64,1.64,0,0,1,17.79,34.65Zm2.34.22a.62.62,0,0,0-.59-.68.67.67,0,0,0-.69.58.63.63,0,0,0,.59.67A.66.66,0,0,0,20.14,34.86Z"/><path d="M25.43,34.48A.59.59,0,0,1,25.1,34a.67.67,0,0,1,.33-.62V32.32A1.72,1.72,0,0,0,24,34.11a1.62,1.62,0,0,0,1.39,1.47Z"/><path d="M25.43,36.26a1.7,1.7,0,0,0-.93-.17,1.73,1.73,0,0,0-1.57,1.83,1.64,1.64,0,0,0,1.83,1.48,1.78,1.78,0,0,0,.67-.21Zm-.73,2.11a.63.63,0,0,1-.71-.55.67.67,0,0,1,.56-.7.62.62,0,0,1,.71.55A.66.66,0,0,1,24.7,38.37Z"/><path d="M35.56,16.08a.6.6,0,0,1,.8-.46.64.64,0,0,1,.34.89.61.61,0,0,1-.8.45A.65.65,0,0,1,35.56,16.08Z"/><path d="M36.66,18.4a.6.6,0,0,1,.8-.46.64.64,0,0,1,.34.89.61.61,0,0,1-.8.45A.65.65,0,0,1,36.66,18.4Z"/><path d="M37.29,21a.6.6,0,0,1,.8-.46.64.64,0,0,1,.34.89.61.61,0,0,1-.8.45A.65.65,0,0,1,37.29,21Z"/><path d="M37.64,23.4a.6.6,0,0,1,.8-.46.64.64,0,0,1,.34.89.61.61,0,0,1-.8.45A.65.65,0,0,1,37.64,23.4Z"/><path d="M35.4,22.39a.6.6,0,0,1,.8-.46.64.64,0,0,1,.34.89.61.61,0,0,1-.8.45A.65.65,0,0,1,35.4,22.39Z"/><path d="M34.94,20.12a.6.6,0,0,1,.8-.46.64.64,0,0,1,.34.89.61.61,0,0,1-.8.45A.65.65,0,0,1,34.94,20.12Z"/><path d="M34,18.26a.6.6,0,0,1,.8-.46.64.64,0,0,1,.34.89.61.61,0,0,1-.8.45A.65.65,0,0,1,34,18.26Z"/><path d="M32.77,20.12a.6.6,0,0,1,.8-.46.64.64,0,0,1,.34.89.61.61,0,0,1-.8.45A.65.65,0,0,1,32.77,20.12Z"/><path d="M33.4,22.1a.6.6,0,0,1,.8-.46.64.64,0,0,1,.34.89.61.61,0,0,1-.8.45A.65.65,0,0,1,33.4,22.1Z"/><path d="M30.95,21.73a.6.6,0,0,1,.8-.46.64.64,0,0,1,.34.89.61.61,0,0,1-.8.45A.65.65,0,0,1,30.95,21.73Z"/><path d="M38,27a.6.6,0,0,1,.83.4.64.64,0,0,1-.54.79.61.61,0,0,1-.83-.41A.65.65,0,0,1,38,27Z"/><path d="M36.69,29.24a.6.6,0,0,1,.83.4.64.64,0,0,1-.54.79.61.61,0,0,1-.83-.41A.65.65,0,0,1,36.69,29.24Z"/><path d="M34.9,31.24a.6.6,0,0,1,.83.4.64.64,0,0,1-.54.79.61.61,0,0,1-.83-.41A.65.65,0,0,1,34.9,31.24Z"/><path d="M33.13,32.89a.6.6,0,0,1,.83.4.64.64,0,0,1-.54.79.61.61,0,0,1-.83-.41A.65.65,0,0,1,33.13,32.89Z"/><path d="M32.7,30.47a.6.6,0,0,1,.83.4.64.64,0,0,1-.54.79.61.61,0,0,1-.83-.41A.65.65,0,0,1,32.7,30.47Z"/><path d="M34.3,28.8a.6.6,0,0,1,.83.4.64.64,0,0,1-.54.79.61.61,0,0,1-.83-.41A.65.65,0,0,1,34.3,28.8Z"/><path d="M35.31,27a.6.6,0,0,1,.83.4.64.64,0,0,1-.54.79.61.61,0,0,1-.83-.41A.65.65,0,0,1,35.31,27Z"/><path d="M33.08,27a.6.6,0,0,1,.83.4.64.64,0,0,1-.54.79.61.61,0,0,1-.83-.41A.65.65,0,0,1,33.08,27Z"/><path d="M31.8,28.65a.6.6,0,0,1,.83.4.64.64,0,0,1-.54.79.61.61,0,0,1-.83-.41A.65.65,0,0,1,31.8,28.65Z"/><path d="M30.71,26.42a.6.6,0,0,1,.83.4.64.64,0,0,1-.54.79.61.61,0,0,1-.83-.41A.65.65,0,0,1,30.71,26.42Z"/><path d="M29.92,35.62a.6.6,0,0,1-.08.92.64.64,0,0,1-.93-.23.61.61,0,0,1,.09-.92A.65.65,0,0,1,29.92,35.62Z"/><path d="M29.29,33.27a.6.6,0,0,1-.08.92.64.64,0,0,1-.93-.23.61.61,0,0,1,.09-.92A.65.65,0,0,1,29.29,33.27Z"/><path d="M29,31.11A.6.6,0,0,1,29,32a.64.64,0,0,1-.93-.23.61.61,0,0,1,.09-.92A.65.65,0,0,1,29,31.11Z"/><path d="M30,11.69a.6.6,0,0,1,.8-.46.64.64,0,0,1,.34.89.61.61,0,0,1-.8.45A.65.65,0,0,1,30,11.69Z"/><path d="M28,13.11a.6.6,0,0,1,.8-.46.64.64,0,0,1,.34.89.61.61,0,0,1-.8.45A.65.65,0,0,1,28,13.11Z"/><path d="M27.82,10.87a.6.6,0,0,1,.8-.46.64.64,0,0,1,.34.89.61.61,0,0,1-.8.45A.65.65,0,0,1,27.82,10.87Z"/><path d="M30.32,14.54a.6.6,0,0,1,.8-.46.64.64,0,0,1,.34.89.61.61,0,0,1-.8.45A.65.65,0,0,1,30.32,14.54Z"/><path d="M32.27,12.4a.6.6,0,0,1,.8-.46.64.64,0,0,1,.34.89.61.61,0,0,1-.8.45A.65.65,0,0,1,32.27,12.4Z"/><path d="M28.28,15.75a.6.6,0,0,1,.8-.46.64.64,0,0,1,.34.89.61.61,0,0,1-.8.45A.65.65,0,0,1,28.28,15.75Z"/><path d="M28,18.4a.6.6,0,0,1,.8-.46.64.64,0,0,1,.34.89.61.61,0,0,1-.8.45A.65.65,0,0,1,28,18.4Z"/><path d="M34.27,10.16a.63.63,0,0,1,.31.69.55.55,0,0,1-.51.48,1,1,0,0,1-.49-.13,12.95,12.95,0,0,0-5.85-1.67V8.27a13.89,13.89,0,0,1,5.09,1.17C33.32,9.65,33.79,9.91,34.27,10.16Z"/><path d="M27.74,39.69A15.37,15.37,0,0,0,32,38.92c0-.06,0-.1,0-.14l-.38-1.09c-.44.12-.87.24-1.29.34a14.5,14.5,0,0,1-2.58.34V37.1a12.72,12.72,0,0,0,2-.25c.47-.1.93-.23,1.43-.35l-.1-.28-3.36-9.58V25.33a.58.58,0,0,1,.15-.09.6.6,0,0,1,.75.32c0,.08.07.17.1.26L33.08,38.2l.1.28a15.38,15.38,0,0,0,5.3-3.69,16.6,16.6,0,0,0,4.15-8l-1.22-.22c-.17.6-.32,1.19-.52,1.76a14.77,14.77,0,0,1-5.71,7.58c-.28.19-.57.37-.86.55a.6.6,0,0,1-.88-.21.63.63,0,0,1,.27-.88,13.5,13.5,0,0,0,3.79-3.3,14,14,0,0,0,2.66-5.61l0-.13-3.58-.65-6.84-1.25c-.39-.07-.6-.28-.62-.61a.61.61,0,0,1,.73-.66l1.49.27L42.65,25.5l.2,0A16.84,16.84,0,0,0,42,17.68a16.37,16.37,0,0,0-4.21-6.49l-.41.5-.4.5.69.73a15.46,15.46,0,0,1,4,10.43.61.61,0,0,1-.47.65.57.57,0,0,1-.68-.34,1,1,0,0,1-.06-.37,15.12,15.12,0,0,0-.4-3.31,14.34,14.34,0,0,0-1.28-3.36,13.72,13.72,0,0,0-2.5-3.33l-.1-.09-.14.16-6.56,8.11-.17.21a.59.59,0,0,1-.88.09.64.64,0,0,1,0-.9l2.66-3.28,5.66-7,.14-.18a15.45,15.45,0,0,0-6.42-3.08,15.27,15.27,0,0,0-2.72-.34V5.68c.33,0,.65,0,1,.06a17.06,17.06,0,0,1,14,10.33,18.22,18.22,0,0,1-1.44,17.16,16.81,16.81,0,0,1-7,6.15A16.06,16.06,0,0,1,28,40.94h-.27Z"/></svg>