<svg id="Слой_1" data-name="Слой 1" xmlns="http://www.w3.org/2000/svg" viewBox="0 0 50 50"><defs><style>.cls-1{fill:#ffed00;}</style></defs><title>salat</title><polygon class="cls-1" points="16.49 39.19 10.11 29.58 9.77 24.54 11.45 23.46 10.91 19.73 13.67 17.21 16.49 16 18.04 14.59 21 14.59 22.68 15.66 24.96 15.6 27.05 14.05 30.41 14.86 32.22 13.11 34.37 14.65 37.2 16.2 38.14 17.28 42.51 18.42 41.43 24 43.18 24.47 41.9 32.13 37.87 37.64 34.78 39.66 16.49 39.19"/><path d="M10.7,23.55c-.21-.63-.45-1.22-.61-1.83-.2-.78-.34-1.57-.48-2.37a.71.71,0,0,1,.52-.89,1,1,0,0,1,.28,0l1.47.09a.17.17,0,0,0,.2-.14,3.88,3.88,0,0,1,4-2.88.36.36,0,0,0,.39-.25,3.13,3.13,0,0,1,2.71-1.94,3.43,3.43,0,0,1,3.2,1.51c.08.11.13.19.29.12a2.57,2.57,0,0,1,1.94,0,.17.17,0,0,0,.24-.06,3.7,3.7,0,0,1,4.82-1.16l.21.1a1.84,1.84,0,0,0,.12-.18,2.08,2.08,0,0,1,1.71-1.05,2.88,2.88,0,0,1,3.29,2l0,.07c.39.06.78.08,1.14.18a3.53,3.53,0,0,1,2.4,1.92.23.23,0,0,0,.24.14,14.1,14.1,0,0,1,3.69.57c.59.17.75.38.72,1a15.6,15.6,0,0,1-1,4.82l-.07.21h.22A1.51,1.51,0,0,1,44,25.17a22.53,22.53,0,0,1-.27,2.5,20.08,20.08,0,0,1-5.49,10.7l-.54.56a4.36,4.36,0,0,1-2.42,1.2,21,21,0,0,1-4,.28q-5.07,0-10.15,0a19,19,0,0,1-3.49-.26A4.86,4.86,0,0,1,15,38.74a21.6,21.6,0,0,1-4.53-6.63,19.84,19.84,0,0,1-1.58-6.85,1.57,1.57,0,0,1,1.64-1.7Zm.58,6.61a2,2,0,0,0,.06.22c.34.8.65,1.61,1,2.38a19.72,19.72,0,0,0,3.65,5,3.08,3.08,0,0,0,1.85,1,23.4,23.4,0,0,0,2.71.23q5.25,0,10.49,0c1.13,0,2.27-.08,3.39-.17A3.35,3.35,0,0,0,37,37.52l.11-.12a19,19,0,0,0,4.37-7l.09-.26Zm-.45-1.49h31c.13,0,.21,0,.24-.17a18.47,18.47,0,0,0,.46-3.22c0-.26,0-.26-.26-.26H10.56c-.18,0-.25,0-.22.23.07.58.1,1.17.18,1.75S10.72,28.12,10.82,28.67Zm8.88-7a5.94,5.94,0,0,1,6-3.23c0-.07,0-.12,0-.17a2.17,2.17,0,0,0-3.11-1.82A.76.76,0,0,1,21.41,16a1.15,1.15,0,0,0-.33-.5,3.88,3.88,0,0,0-1-.58,1.84,1.84,0,0,0-2.47,1.45.72.72,0,0,1-.73.62h-.78a3.28,3.28,0,0,0-1.47.32,2.32,2.32,0,0,0-1.14,1.44l.11,0c.81.21,1.64.37,2.44.63a7.4,7.4,0,0,1,3.58,2.27ZM41.8,18.92l-.26-.08a11.45,11.45,0,0,0-3.36-.41,8.72,8.72,0,0,0-5.35,1.9,5.82,5.82,0,0,0-2,2.74,2.31,2.31,0,0,0-.05.48l.17,0h3.55a.3.3,0,0,0,.2-.15,6,6,0,0,1,3.19-2.72.73.73,0,1,1,.52,1.37,5.3,5.3,0,0,0-1.89,1.3l-.15.19h4.15a.21.21,0,0,0,.22-.16,11.66,11.66,0,0,0,.79-2.45C41.62,20.28,41.7,19.6,41.8,18.92ZM26,15.79a3.73,3.73,0,0,1,1.12,2.94c0,.13.08.17.18.21a5.64,5.64,0,0,1,2.07,1.56c.21.25.39.52.59.78a9.66,9.66,0,0,1,7-4.23s0,0,0-.05l-.05-.06a2,2,0,0,0-1.15-.63,8.39,8.39,0,0,0-1.14-.05.79.79,0,0,1-.88-.81,1.45,1.45,0,0,0-1.14-1.37,1.49,1.49,0,0,0-1.72.75l-.11.22a.73.73,0,0,1-1.16.27,2.57,2.57,0,0,0-1.29-.52A2.24,2.24,0,0,0,26,15.79ZM25,23.56h3.91c.28,0,.31,0,.33-.31a.67.67,0,0,0,0-.22A4.34,4.34,0,0,0,24.22,20a4.25,4.25,0,0,0-3.49,3.18c-.08.27,0,.4.3.4Zm-10.56,0-.18-.19-.77-.77a.69.69,0,0,1-.17-.74.71.71,0,0,1,.6-.5.73.73,0,0,1,.66.25c.6.61,1.2,1.21,1.81,1.81a.51.51,0,0,0,.32.13h2.47s0-.06,0-.07l-.09-.18a5,5,0,0,0-2.1-2,12.91,12.91,0,0,0-4.12-1.23C12.31,20,11.78,20,11.27,20c0,.06,0,.07,0,.08a10.17,10.17,0,0,0,1.1,3.41.2.2,0,0,0,.14.1Z"/></svg>