<svg id="Слой_1" data-name="Слой 1" xmlns="http://www.w3.org/2000/svg" viewBox="0 0 50 50"><defs><style>.cls-1{fill:#ffed00;}</style></defs><title>zakuski</title><polygon class="cls-1" points="16.54 38.75 10.03 19.42 12.74 19.42 11.75 10.84 16.54 10.02 16.95 7.99 22.09 7.81 22.55 10.07 27.56 9.93 28.46 7.81 33.57 8.4 33.21 11.92 38.9 12.82 37.68 18.97 40.89 19.37 34.88 38.35 16.54 38.75"/><path d="M28.1,7.26h1.06l.57.07,2.17.24c.65.07,1.29.12,1.94.2a.68.68,0,0,1,.63.67,6.47,6.47,0,0,1-.07.74c-.07.59-.14,1.18-.21,1.77,0,.26,0,.52-.06.8l1,.07,3.7.37c.68.07,1.13.43.89,1a4.07,4.07,0,0,0-.15.75q-.3,1.46-.6,2.91c-.13.62-.26,1.23-.4,1.88h2.19a.78.78,0,0,1,.33.06.71.71,0,0,1,.37,1c-.51,1.6-1,3.2-1.54,4.8l-1.27,4q-.78,2.45-1.55,4.9c-.48,1.52-.94,3-1.43,4.55-.14.43-.16.94-.7,1.21H16.13a1,1,0,0,1-.55-.73c-.84-2.66-1.67-5.32-2.51-8-.76-2.38-1.52-4.77-2.29-7.15C10.4,22.17,10,21,9.63,19.79c-.23-.68.23-1.1.91-1.05s1.12,0,1.69,0c-.09-.51-.18-1-.26-1.46s-.21-1.23-.31-1.85-.2-1.23-.3-1.85c-.15-.85-.32-1.71-.46-2.56a.65.65,0,0,1,.59-.71c1.09-.2,2.2-.38,3.3-.56l1.56-.26a10.53,10.53,0,0,0-.09-1.05.78.78,0,0,1,.82-1c.63,0,1.27,0,1.9-.06l2.39-.07a.45.45,0,0,0,.14-.06h.92a.85.85,0,0,1,.65.92,8.36,8.36,0,0,0,.15,1.07h4.32c0-.22,0-.44.06-.66C27.69,8.13,27.57,7.6,28.1,7.26ZM39.77,20.06c-1.46,0-2.89,0-4.32,0a.45.45,0,0,0-.32.21,9,9,0,0,1-3,3.58,10.31,10.31,0,0,1-5.52,1.92,18,18,0,0,1-3-.12,9.6,9.6,0,0,1-5.37-2.36,8.67,8.67,0,0,1-2.27-3,.44.44,0,0,0-.32-.21c-1.43,0-2.86,0-4.3,0,0,.11,0,.21.07.31.48,1.49,1,3,1.44,4.48.79,2.51,1.57,5,2.37,7.54.55,1.73,1.13,3.45,1.66,5.19.09.28.2.33.48.33H33.73a.47.47,0,0,0,.17,0c.1,0,.24-.1.27-.18.18-.52.34-1.05.51-1.58q.83-2.64,1.66-5.28c.38-1.21.78-2.42,1.17-3.63q.8-2.52,1.6-5Zm-22-11.27c0,.26.06.51.08.75.05.49.09,1,.15,1.47.09.73.19,1.46.27,2.2.06.49.09,1,.15,1.47.09.72.19,1.44.27,2.17S18.88,18.3,19,19a26.85,26.85,0,0,1,.32,2.68A1.48,1.48,0,0,0,20.14,23a9.25,9.25,0,0,0,3.28,1.31,3,3,0,0,0,0-.34c-.07-.56-.14-1.12-.21-1.68s-.1-.9-.15-1.35c-.09-.73-.19-1.46-.27-2.2-.06-.49-.09-1-.15-1.47-.08-.7-.19-1.4-.27-2.1-.06-.5-.09-1-.15-1.5-.11-.87-.24-1.75-.34-2.62-.09-.71-.14-1.43-.22-2.15,0-.17-.1-.26-.31-.24l-1.61.07ZM27.7,24.27A9,9,0,0,0,31,22.94a.86.86,0,0,0,.5-.84,3.87,3.87,0,0,1,.07-.86c.09-.81.19-1.61.28-2.42.06-.54.09-1.09.15-1.63.08-.77.19-1.55.27-2.32.06-.55.09-1.11.15-1.66.09-.85.18-1.69.28-2.54.06-.55.13-1.09.19-1.65l-3.7-.38a.76.76,0,0,0-.1.23c-.05.63-.1,1.25-.15,1.88s-.09,1.19-.15,1.78c-.09.92-.19,1.84-.28,2.76-.06.64-.09,1.27-.15,1.91-.09,1-.19,2-.28,3-.05.55-.09,1.11-.15,1.66C27.87,22.64,27.79,23.44,27.7,24.27Zm-1.51.2c0-.2,0-.39,0-.57.09-.88.19-1.76.28-2.63.06-.66.09-1.32.15-2,.08-.89.19-1.78.28-2.67.06-.67.09-1.34.15-2,.09-1,.19-2,.28-3,0-.33.07-.66.11-1H23.36L25,24.47ZM17.49,20l.06,0c-.05-.55-.09-1.11-.15-1.66-.08-.76-.19-1.53-.28-2.29-.05-.47-.09-.94-.15-1.41-.09-.73-.19-1.46-.28-2.2-.06-.53-.11-1.05-.17-1.58l-4,.64.16,1q.15.92.31,1.85l.33,1.9c.13.75.27,1.49.37,2.24,0,.23.09.31.35.3.73,0,1.46,0,2.19,0a.85.85,0,0,1,.93.55ZM34,13.08l-.79,7.5.11,0c.2-.43.41-.85.6-1.29a.81.81,0,0,1,.9-.56H37c.05-.28.09-.55.14-.81.3-1.38.61-2.76.91-4.13.06-.29,0-.34-.37-.37-.55,0-1.11-.12-1.66-.17Z"/></svg>