<svg id="Слой_1" data-name="Слой 1" xmlns="http://www.w3.org/2000/svg" viewBox="0 0 72.78 54.13"><defs><style>.cls-1{fill:#ffed00;}</style></defs><title>dostavka</title><path class="cls-1" d="M24.86,22.49c.1-.2.22-.39.31-.59.71-1.44,1.41-2.87,2.11-4.31a1.46,1.46,0,0,1,1.34-.84,65.69,65.69,0,0,1,12,0,1.4,1.4,0,0,1,1.27.83c.7,1.44,1.41,2.87,2.11,4.31l.3.61c.11-.1.17-.13.17-.16.19-1.18.19-1.18,1.43-1.18h.57c1.08,0,1.05,0,1.08,1.08,0,.56-.19.74-.73.76s-1.15.13-1.84.21c1.19,2.17.72,4.42.68,6.64,0,1.27-.12,2.54-.16,3.81,0,.57-.27.81-.84.78s-.9,0-1.34,0c-.62,0-.85-.28-.83-.86s0-1,0-1.52H26.67c0,.57,0,1.12,0,1.68s-.22.69-.68.69H24.43c-.54,0-.74-.26-.76-.79-.08-2.24-.25-4.48-.24-6.71a29,29,0,0,1,.49-3.74c-.46-.06-1.1-.19-1.74-.22-.93,0-.51-.72-.59-1.15s.12-.7.63-.67a11.51,11.51,0,0,0,1.63,0c.6,0,.83.18.77.76a2.77,2.77,0,0,0,0,.53Zm9.74-4.83c-1.92.08-3.82.12-5.73.25a1.41,1.41,0,0,0-1,.59c-.57,1.13-1,2.31-1.51,3.49-.21.54,0,.71.56.66a85.54,85.54,0,0,1,15.38,0c.63.06.8-.13.57-.73-.42-1-.91-2.07-1.33-3.11a1.41,1.41,0,0,0-1.42-.94C38.26,17.83,36.43,17.73,34.6,17.65Zm3.59,12.23c0-.19,0-.33.05-.46,0-1.07,0-1.07-1.05-1.07H32.33c-1.45,0-1.45,0-1.28,1.44,0,0,0,0,.08.09Zm3.15-2.63.13-.14a1.1,1.1,0,0,0,.42-.05,3.67,3.67,0,0,1,2.33-.57.4.4,0,0,0,.3-.23c.14-.42-.53-1.43-1-1.44-.87,0-1.74,0-2.62,0-.15,0-.39.1-.41.19a2.74,2.74,0,0,0-.11,1.33C40.53,26.73,41,27,41.34,27.25ZM27,24.83v0h-.71c-1,0-1.21.16-1.52,1.1-.15.45,0,.62.44.61a2.6,2.6,0,0,1,1.87.43,1.37,1.37,0,0,0,.88.14,1.14,1.14,0,0,0,1-1.3c0-.76-.23-.94-1.06-1Z"/></svg>