<svg id="Слой_1" data-name="Слой 1" xmlns="http://www.w3.org/2000/svg" viewBox="0 0 72.78 54.13"><defs><style>.cls-1{fill:#fff;}.cls-2{fill:#ffed00;}</style></defs><title>korzina</title><path class="cls-1" d="M32.52,24.81l-.38-.75L30.1,20l-.58-1.17-.18-.38s-.06-.06-.11-.06H28.07a.52.52,0,1,1,0-1h1.56a.51.51,0,0,1,.48.31l.39.78,3.05,6.11a.13.13,0,0,0,.14.09h4.4a.15.15,0,0,0,.15-.09l1.85-3.09,1.06-1.76a.52.52,0,1,1,.9.53l-.93,1.55-1.88,3.13-.3.5a.53.53,0,0,1-.49.27H33.29a.52.52,0,1,0,0,1H39.5a.52.52,0,0,1,.37.9.52.52,0,0,1-.38.14H33.33a1.61,1.61,0,0,1-.93-.27,1.56,1.56,0,0,1,0-2.61Z"/><path class="cls-2" d="M36.6,20.74l.45-.45.71-.71a.52.52,0,1,1,.73.74l-2.05,2.05a.52.52,0,0,1-.75,0l-2.07-2.07a.52.52,0,1,1,.74-.74l1.1,1.1a.49.49,0,0,1,.06.08l0,0q0-.08,0-.17,0-1.53,0-3.07,0-.33,0-.67a.52.52,0,1,1,1,0q0,1.92,0,3.84s0,0,0,.06Z"/><path class="cls-1" d="M33.28,28.79a1.56,1.56,0,1,1-1.57,1.55A1.56,1.56,0,0,1,33.28,28.79Zm.51,1.56a.52.52,0,1,0-.52.52A.52.52,0,0,0,33.79,30.35Z"/><path class="cls-1" d="M38.47,28.79a1.56,1.56,0,1,1-1.56,1.58A1.56,1.56,0,0,1,38.47,28.79Zm0,2.08a.52.52,0,1,0-.51-.53A.52.52,0,0,0,38.46,30.87Z"/></svg>