<svg id="Слой_1" data-name="Слой 1" xmlns="http://www.w3.org/2000/svg" viewBox="0 0 72.78 54.13"><defs><style>.cls-1{fill:#ffed00;}</style></defs><title>samovuvoz</title><path class="cls-1" d="M30.63,37.28a1.56,1.56,0,0,1-.7-2.34c.36-.83.71-1.67,1.12-2.48a11.19,11.19,0,0,0,1.16-4.09c.26-2.67.62-5.33.95-8.08a2.89,2.89,0,0,0-1.48,2.31A23,23,0,0,1,31.45,25a1.66,1.66,0,0,1-.11.45.9.9,0,0,1-1.76-.34c.14-1.46.3-2.92.5-4.38a1.49,1.49,0,0,1,.45-.72q1.68-1.73,3.38-3.43a2.09,2.09,0,0,1,3.47.41c.64,1,1.29,2,1.9,3.05a2.57,2.57,0,0,0,1.11,1.05c.74.37,1.47.78,2.19,1.19s.78.82.49,1.34-.76.66-1.39.32c-1-.55-2-1.11-3-1.7a2.36,2.36,0,0,1-.6-.69c-.23-.32-.43-.66-.69-1-.17,1.76-.59,3.46,0,5.25,1,3.05,1.86,6.17,2.76,9.27.33,1.14.13,1.6-.92,2.16h-.7A1.74,1.74,0,0,1,37.45,36c-.31-1.17-.67-2.33-1-3.5l-1.2-4.1A2,2,0,0,0,35,29a13,13,0,0,1-.48,2.36c-.62,1.6-1.39,3.14-2.07,4.71a2.06,2.06,0,0,1-1,1.16Z"/><path class="cls-1" d="M36.09,11.14c1.3.56,1.88,1.54,1.58,2.65a2,2,0,0,1-2.11,1.55,2.09,2.09,0,0,1-1.89-1.54,2.2,2.2,0,0,1,1.14-2.44l.46-.21Z"/></svg>