<svg id="Слой_1" data-name="Слой 1" xmlns="http://www.w3.org/2000/svg" viewBox="0 0 50 50"><defs><style>.cls-1{fill:#ffed00;}</style></defs><title>deserty</title><polygon class="cls-1" points="14.7 40.31 13.44 29.6 9.35 28.08 8.04 26.16 9.2 25 12.63 25 13.79 22.49 14.2 18.6 17.18 16.63 19.08 13.18 22.06 12.17 21.56 9.95 21.1 8.84 22.43 8.48 24.98 9.65 28.9 11.92 30.63 13.61 32.13 14.44 33.14 16.41 33.46 17.99 35.43 18.23 37.13 19.87 37.74 22.49 37.38 24.39 37.18 25.56 39.46 25 41.17 25 42.08 26.26 41.48 27.48 39.86 27.93 38.14 28.74 37.59 30.41 37.28 33.99 36.68 37.43 35.87 40.31 33.46 41.87 18.04 41.87 14.7 40.31"/><path d="M12.29,24.41a2.51,2.51,0,0,1,.94-2c.09-.07.09-.31.06-.45a4.42,4.42,0,0,1,3.07-5.28.58.58,0,0,0,.31-.4,3.72,3.72,0,0,1,3.45-3.72,3.29,3.29,0,0,0,.65-.16c.61-.24.73-.59.44-1.18-.16-.31-.33-.62-.49-.93a1.5,1.5,0,0,1,.19-2A1.87,1.87,0,0,1,23,8c1.52.77,3,1.53,4.55,2.31a7.58,7.58,0,0,1,3.14,2.59.48.48,0,0,0,.24.2c1.86.54,2.56,2,2.95,3.7,0,.13.05.25.07.38s0,.21.05.34a4,4,0,0,1,3.72,2.39,5.75,5.75,0,0,1,.42,4.46c.75-.07,1.43-.18,2.11-.19a2.22,2.22,0,1,1,.18,4.41,4.4,4.4,0,0,0-.82.11,1.7,1.7,0,0,0-1.34,1.67C37.93,33.25,37.48,36.1,37,39a5,5,0,0,1-.57,1.5,3.38,3.38,0,0,1-3.31,1.73q-4.45,0-8.9,0c-2.28,0-4.56.05-6.83-.07a4,4,0,0,1-3.89-3.81c-.23-2.27-.37-4.55-.55-6.82a4.08,4.08,0,0,0-.18-1.64c-.23-.38-.88-.49-1.32-.77a3.68,3.68,0,0,0-1.73-.52,2.27,2.27,0,0,1-2.21-2.26A2.3,2.3,0,0,1,10,24.19C10.73,24.2,11.5,24.33,12.29,24.41Zm22.89,1.21c.58-.08,1.24-.13,1.44-.65a5,5,0,0,0-.26-4.89A2.32,2.32,0,0,0,33.57,19a.62.62,0,0,1-.85-.6c0-.24,0-.48,0-.72-.14-1.21-.4-2.54-1.57-3A6.42,6.42,0,0,1,29.05,13a12,12,0,0,0-2.48-1.66c-1.33-.74-2.7-1.39-4-2.08-.07,0-.13-.1-.2-.1a1,1,0,0,0-.5.09c-.07.05,0,.31,0,.44.18.38.41.75.6,1.13A1.74,1.74,0,0,1,22.08,13a3.57,3.57,0,0,1-1.78.78,2.65,2.65,0,0,0-2.36,3.1c.09.55-.1.77-.66.87a3.15,3.15,0,0,0-2.6,4.56c.2.52.09.81-.45,1a.91.91,0,0,0-.7.94,1.05,1.05,0,0,0,.65,1.17,2.51,2.51,0,0,0,2.18-.25,7.38,7.38,0,0,1,7.53.05,2.34,2.34,0,0,0,2.43,0,7.52,7.52,0,0,1,7.73,0A7.15,7.15,0,0,0,35.18,25.62Zm-18,15.21c0-.23,0-.37,0-.52q-.3-4.08-.6-8.16c0-.44.06-.81.58-.83s.65.32.68.76c.14,1.91.29,3.81.44,5.72.08,1,.16,2.06.24,3.08h1.81c0-.73-.08-1.43-.12-2.13-.09-1.46-.19-2.93-.27-4.39a.62.62,0,0,1,.58-.74c.42,0,.64.23.67.65s.06.74.08,1.11c.12,1.83.23,3.66.34,5.5h2c0-1.26,0-2.48,0-3.7,0-.74.18-1,.61-1.06s.64.29.64,1.07c0,1.22,0,2.44,0,3.68h2c0-.16,0-.27,0-.38,0-1.19,0-2.38,0-3.56,0-.45.14-.8.64-.8s.63.37.63.8,0,.85,0,1.28c0,.89,0,1.77,0,2.66h1.81c.05-1,.11-2,.15-3,.06-1.22.12-2.45.18-3.67a.59.59,0,0,1,.63-.64.62.62,0,0,1,.63.7c0,.06,0,.11,0,.17q-.14,2.72-.27,5.45c0,.31,0,.62,0,1h1.54c.14-1.49.28-3,.42-4.44s.29-3,.43-4.49c0-.42.26-.66.69-.63s.59.33.57.74c0,.19,0,.37,0,.55q-.36,3.82-.73,7.64c0,.17,0,.34,0,.56a3.47,3.47,0,0,0,.34-.09,2.39,2.39,0,0,0,1.41-2c.39-2.26.7-4.54,1-6.81.1-.69.16-1.39.24-2.12A7.49,7.49,0,0,1,31.6,29a2.63,2.63,0,0,0-2.83,0,7.22,7.22,0,0,1-7.37,0,2.45,2.45,0,0,0-2.63,0,7.32,7.32,0,0,1-4.16,1h-.45a2.34,2.34,0,0,0,0,.25c.18,2.22.35,4.44.54,6.66a10.46,10.46,0,0,0,.31,2A2.59,2.59,0,0,0,17.18,40.83Zm18.16-12a17.62,17.62,0,0,0,2.44-.68,7,7,0,0,1,2.77-.87.86.86,0,0,0,.87-.86c0-.53-.31-.81-.77-.95a1.84,1.84,0,0,0-.55-.06,5.75,5.75,0,0,0-2.86.79,3.75,3.75,0,0,1-4,0,6,6,0,0,0-6.15,0,3.76,3.76,0,0,1-3.9,0,6,6,0,0,0-6.25,0,3.48,3.48,0,0,1-2.46.47A5.6,5.6,0,0,1,13,26.21a6.25,6.25,0,0,0-3.15-.78,1,1,0,0,0-1.07.93,1,1,0,0,0,1,1,4.87,4.87,0,0,1,2.21.65A5.92,5.92,0,0,0,18,28a4,4,0,0,1,4.21,0,5.82,5.82,0,0,0,5.95,0,3.82,3.82,0,0,1,4.1,0A7.2,7.2,0,0,0,35.34,28.84Z"/><path d="M30.63,22.79c-.22.24-.36.51-.56.56a.76.76,0,0,1-.67-.2,14.39,14.39,0,0,1-1.05-1.95.72.72,0,0,1,.22-.65c.16-.12.61-.13.68,0C29.74,21.24,30.16,22,30.63,22.79Z"/><path d="M18.46,18.6c0-.33,0-.67,0-1a.59.59,0,0,1,.63-.64.58.58,0,0,1,.62.63q0,1,0,2.06c0,.38-.27.64-.61.56a1,1,0,0,1-.61-.57,3.47,3.47,0,0,1,0-1Z"/><path d="M17.46,22.81c-.19.21-.33.5-.52.54a.81.81,0,0,1-.7-.22,11.76,11.76,0,0,1-.87-2,.78.78,0,0,1,.32-.66.7.7,0,0,1,.67.08C16.75,21.28,17.07,22,17.46,22.81Z"/><path d="M31.35,19.28a3.25,3.25,0,0,1-.5-.27c-.46-.37-.91-.76-1.35-1.14a.6.6,0,0,1-.11-.92.57.57,0,0,1,.88-.06,16.63,16.63,0,0,1,1.42,1.23.91.91,0,0,1,.16.73C31.81,19,31.52,19.14,31.35,19.28Z"/><path d="M25.76,12.17a1.8,1.8,0,0,1,.42.39c.3.49.55,1,.83,1.51a.59.59,0,0,1-.2.87.57.57,0,0,1-.86-.22A16.68,16.68,0,0,1,25,13.07C24.83,12.63,25.17,12.15,25.76,12.17Z"/><path d="M35.43,20.4c-.33.69-.6,1.34-1,1.94a.7.7,0,0,1-.68.11.77.77,0,0,1-.32-.66,8.2,8.2,0,0,1,.76-1.72c.09-.16.49-.23.72-.18S35.26,20.2,35.43,20.4Z"/><path d="M24.93,15.22a2.66,2.66,0,0,1,0,.88c-.08.23-.37.55-.55.53a.85.85,0,0,1-.64-.51,6,6,0,0,1,0-1.76.91.91,0,0,1,.62-.54c.34-.07.57.2.59.57s0,.55,0,.83Z"/><path d="M24.21,19.89c-.47.6-.88,1.18-1.36,1.69-.08.09-.51,0-.63-.12a.77.77,0,0,1-.14-.69A6.32,6.32,0,0,1,23,19.44a.81.81,0,0,1,.69-.15C23.85,19.34,24,19.61,24.21,19.89Z"/></svg>