<svg id="Слой_1" data-name="Слой 1" xmlns="http://www.w3.org/2000/svg" viewBox="0 0 50 50"><defs><style>.cls-1{fill:#ffed00;}</style></defs><title>kombo</title><circle class="cls-1" cx="18.97" cy="25.61" r="10.69"/><circle class="cls-1" cx="32.88" cy="25.36" r="10.69"/><path d="M19.56,25.09l.19,0,9.41-1.72c.34-.06.51.06.56.42a11.78,11.78,0,0,1,0,4,11.58,11.58,0,0,1-1.33,3.64,10.88,10.88,0,0,1-9.9,5.55,10.3,10.3,0,0,1-4-1A10.78,10.78,0,0,1,9.95,32,11.68,11.68,0,0,1,9,21a10.94,10.94,0,0,1,9-6.62,10.34,10.34,0,0,1,4.64.62.42.42,0,0,1,.26.61L19.62,24.9Zm-8.92,2.46,0,.08a9,9,0,0,0,1.7,3.6,8.66,8.66,0,0,0,2.43,2.11.41.41,0,0,1,.17.56.38.38,0,0,1-.57.13l-.55-.35a9.47,9.47,0,0,1-3.66-4.86c-.13-.37-.22-.74-.33-1.13l-.78.14A10.65,10.65,0,0,0,11.74,33a9.86,9.86,0,0,0,3.4,2.37l.06-.18L18,27.21c0-.06,0-.11.06-.17a.38.38,0,0,1,.48-.21.41.41,0,0,1,.25.48c0,.06,0,.11-.06.17l-2.25,6.4-.06.18c.32.08.61.16.91.22a8.1,8.1,0,0,0,3.41,0,8.76,8.76,0,0,0,2.45-1,.38.38,0,0,1,.56.14.4.4,0,0,1-.19.56c-.44.22-.87.46-1.32.63A8.77,8.77,0,0,1,17,35l-.83-.22-.25.7s0,.05,0,.09a9.64,9.64,0,0,0,5.21.26,9.81,9.81,0,0,0,4.07-2l-.08-.1L21,28.73,19.74,27.2a.42.42,0,0,1-.05-.47.35.35,0,0,1,.39-.19.63.63,0,0,1,.29.19l3.4,4.2,1,1.19.09-.08a8.75,8.75,0,0,0,1.76-2.46,8.91,8.91,0,0,0,.85-3c0-.33,0-.67.06-1a.42.42,0,0,1,.19-.37.36.36,0,0,1,.39,0,.41.41,0,0,1,.2.39,9.91,9.91,0,0,1-.36,2.63,9.65,9.65,0,0,1-2,3.82c-.2.23-.42.45-.64.69l.05.07.46.57a10.56,10.56,0,0,0,2.73-4.23,10.7,10.7,0,0,0,.51-5l-.15,0-7.52,1.36L19.08,26c-.37.07-.59-.21-.46-.58l0-.13,2.79-8,.06-.18-.9-.22a8,8,0,0,0-3.39,0,8.33,8.33,0,0,0-2.34.89.63.63,0,0,1-.31.08.36.36,0,0,1-.33-.31.4.4,0,0,1,.2-.44c.31-.16.61-.33.93-.47a8.86,8.86,0,0,1,5.4-.57c.34.07.67.16,1,.25L22,15.6a9.65,9.65,0,0,0-5.16-.27,9.91,9.91,0,0,0-4.12,2l.09.12,3.63,4.49L18.19,24a.41.41,0,0,1,0,.58.38.38,0,0,1-.57-.05l-.11-.14-4.21-5.2-.09-.1-.07.06a8.8,8.8,0,0,0-1.6,2.14,9.2,9.2,0,0,0-.82,2.15,9.7,9.7,0,0,0-.26,2.12.65.65,0,0,1,0,.24A.37.37,0,0,1,10,26a.39.39,0,0,1-.3-.42,9.91,9.91,0,0,1,2.58-6.69l.44-.47-.26-.32-.26-.32A10.5,10.5,0,0,0,9.46,22a10.8,10.8,0,0,0-.53,5l.13,0,7.24-1.33,1-.17a.39.39,0,0,1,.47.42c0,.21-.15.34-.4.39l-4.38.8Z"/><path d="M20.38,20.37l1.77-5a.8.8,0,0,1,.16-.28.37.37,0,0,1,.43-.05,10.6,10.6,0,0,1,2.71,1.52,11.23,11.23,0,0,1,4,6c.09.34.16.69.23,1a.41.41,0,0,1-.37.56l-6.15,1.11L19.09,26a.42.42,0,0,1-.42-.11.42.42,0,0,1-.08-.46l.73-2.07Zm6.91,3.33c-.07-.25-.13-.49-.2-.73a8.6,8.6,0,0,0-2.55-4c-.4-.35-.85-.64-1.27-1a.41.41,0,0,1-.13-.55.38.38,0,0,1,.55-.13l.39.25a9.52,9.52,0,0,1,3.75,5.14c.09.29.16.58.24.87l.79-.14a10.63,10.63,0,0,0-2.31-4.74,10,10,0,0,0-3.75-2.77l-3.23,9.2Z"/><path d="M25.82,29.32a1.24,1.24,0,0,1-1.56.82,1.32,1.32,0,0,1-.79-1.68A1.24,1.24,0,0,1,25,27.67,1.29,1.29,0,0,1,25.82,29.32Zm-.75-.24a.5.5,0,0,0-.28-.63.47.47,0,0,0-.6.3.49.49,0,0,0,.28.61A.45.45,0,0,0,25.07,29.08Z"/><path d="M19.42,20.11a1.23,1.23,0,0,1-1.59.78,1.32,1.32,0,0,1-.75-1.68,1.25,1.25,0,0,1,1.6-.76A1.31,1.31,0,0,1,19.42,20.11Zm-1-.89a.46.46,0,0,0-.6.29.49.49,0,0,0,.28.62.47.47,0,0,0,.6-.29A.48.48,0,0,0,18.41,19.22Z"/><path d="M14.21,28a1.3,1.3,0,0,1,.73,1.66,1.24,1.24,0,0,1-1.6.77,1.31,1.31,0,0,1-.73-1.67A1.24,1.24,0,0,1,14.21,28Zm-.59,1.67a.47.47,0,0,0,.61-.31.5.5,0,0,0-.29-.61.47.47,0,0,0-.6.3A.5.5,0,0,0,13.62,29.62Z"/><path d="M22.39,27a.4.4,0,0,1-.52.28.43.43,0,0,1-.21-.58.4.4,0,0,1,.52-.28A.42.42,0,0,1,22.39,27Z"/><path d="M25,26.26a.39.39,0,0,1,.52-.29.41.41,0,0,1,.22.56.39.39,0,0,1-.53.29A.41.41,0,0,1,25,26.26Z"/><path d="M15.14,24.16a.39.39,0,0,1-.51.29.41.41,0,0,1-.22-.58.39.39,0,0,1,.52-.28A.41.41,0,0,1,15.14,24.16Z"/><path d="M16,28.28a.39.39,0,0,1,.51-.29.41.41,0,0,1,.22.57.39.39,0,0,1-.52.29A.41.41,0,0,1,16,28.28Z"/><path d="M17.88,32.68a.39.39,0,0,1,.51-.29.41.41,0,0,1,.22.57.39.39,0,0,1-.52.29A.41.41,0,0,1,17.88,32.68Z"/><path d="M35.67,32a.39.39,0,0,1,.51-.29.41.41,0,0,1,.22.57.39.39,0,0,1-.52.29A.41.41,0,0,1,35.67,32Z"/><path d="M31.9,32.48a.39.39,0,0,1,.51-.29.41.41,0,0,1,.22.57.39.39,0,0,1-.52.29A.41.41,0,0,1,31.9,32.48Z"/><path d="M12.06,24.1a.39.39,0,0,1,.51-.27.42.42,0,0,1,.21.57.39.39,0,0,1-.52.29A.42.42,0,0,1,12.06,24.1Z"/><path d="M13.48,22.41a.4.4,0,0,1-.51.3.43.43,0,0,1-.21-.58.38.38,0,0,1,.51-.28A.41.41,0,0,1,13.48,22.41Z"/><path d="M23.79,20a.37.37,0,0,1-.48.24.5.5,0,0,1-.31-.61.39.39,0,0,1,.49-.24A.5.5,0,0,1,23.79,20Z"/><path d="M24.68,21.84a.5.5,0,0,1-.31-.59.39.39,0,0,1,.5-.25.51.51,0,0,1,.3.6A.38.38,0,0,1,24.68,21.84Z"/><path d="M22.42,22.56a.49.49,0,0,1-.31-.59.38.38,0,0,1,.5-.25.51.51,0,0,1,.3.6A.38.38,0,0,1,22.42,22.56Z"/><path d="M31.27,25.37l-1,.17h0a4.7,4.7,0,0,1,0,.71s0,.08,0,.12l1.05-.19c.25,0,.39-.18.4-.39A.39.39,0,0,0,31.27,25.37Z"/><path d="M32.05,23.67l-1.7-2.11-1.1-1.36a9.76,9.76,0,0,1,.57,2l1.53,1.9.11.14a.38.38,0,0,0,.57.05A.41.41,0,0,0,32.05,23.67Z"/><path d="M43.74,23.61c-.06-.35-.22-.48-.56-.42l-9.41,1.72-.19,0,.06-.18,3.28-9.34a.42.42,0,0,0-.26-.61A10.34,10.34,0,0,0,32,14.19a10.78,10.78,0,0,0-5.82,2.42,1.81,1.81,0,0,1,.32.31,2.83,2.83,0,0,1,.34.19,9.9,9.9,0,0,1,4-1.93,9.65,9.65,0,0,1,5.16.27l-.27.78c-.34-.08-.67-.18-1-.25a8.86,8.86,0,0,0-5.4.57c-.32.14-.62.3-.93.47a.4.4,0,0,0-.2.44.36.36,0,0,0,.33.31.62.62,0,0,0,.31-.08,8.33,8.33,0,0,1,2.34-.89,8,8,0,0,1,3.39,0l.9.22-.06.18-2.79,8,0,.13c-.12.37.1.64.46.58l2.26-.41,7.52-1.36.15,0a10.7,10.7,0,0,1-.51,5,10.56,10.56,0,0,1-2.73,4.23l-.46-.57-.05-.07c.22-.23.43-.45.64-.69a9.65,9.65,0,0,0,2-3.82,9.91,9.91,0,0,0,.36-2.63.41.41,0,0,0-.2-.39.36.36,0,0,0-.39,0,.42.42,0,0,0-.19.37c0,.33,0,.67-.06,1a8.91,8.91,0,0,1-.85,3,8.75,8.75,0,0,1-1.76,2.46l-.09.08-1-1.19-3.4-4.2a.63.63,0,0,0-.29-.19.35.35,0,0,0-.39.19.42.42,0,0,0,.05.47L35,28.59l4.1,5.08.08.1a9.81,9.81,0,0,1-4.07,2,9.64,9.64,0,0,1-5.21-.26s0-.06,0-.09l.25-.7.83.22a8.77,8.77,0,0,0,5.25-.4c.45-.18.89-.41,1.32-.63a.4.4,0,0,0,.19-.56.38.38,0,0,0-.56-.14,8.76,8.76,0,0,1-2.45,1,8.1,8.1,0,0,1-3.41,0c-.3-.06-.6-.15-.91-.22l.06-.18,2.25-6.4c0-.06,0-.11.06-.17a.41.41,0,0,0-.25-.48.38.38,0,0,0-.48.21c0,.05,0,.11-.06.17L29.22,35l-.06.18A9.9,9.9,0,0,1,27,33.94a1.92,1.92,0,0,1-.65.5,10.86,10.86,0,0,0,2.14,1.33,10.3,10.3,0,0,0,4,1,10.88,10.88,0,0,0,9.9-5.55,11.58,11.58,0,0,0,1.33-3.64A11.78,11.78,0,0,0,43.74,23.61Z"/><path d="M34.4,20.23l1.77-5a.8.8,0,0,1,.16-.28.37.37,0,0,1,.43-.05,10.6,10.6,0,0,1,2.71,1.52,11.23,11.23,0,0,1,4,6c.09.34.16.69.23,1a.41.41,0,0,1-.37.56l-6.15,1.11-4.07.74a.42.42,0,0,1-.42-.11.42.42,0,0,1-.08-.46l.73-2.07Zm6.91,3.33c-.07-.25-.13-.49-.2-.73a8.6,8.6,0,0,0-2.55-4c-.4-.35-.85-.64-1.27-1a.41.41,0,0,1-.13-.55.38.38,0,0,1,.55-.13l.39.25a9.52,9.52,0,0,1,3.75,5.14c.09.29.16.58.24.87l.79-.14a10.63,10.63,0,0,0-2.31-4.74,10,10,0,0,0-3.75-2.77L33.58,25Z"/><path d="M39.84,29.17a1.24,1.24,0,0,1-1.56.82,1.32,1.32,0,0,1-.79-1.68A1.24,1.24,0,0,1,39,27.53,1.29,1.29,0,0,1,39.84,29.17Zm-.75-.24a.5.5,0,0,0-.28-.63.47.47,0,0,0-.6.3.49.49,0,0,0,.28.61A.45.45,0,0,0,39.09,28.93Z"/><path d="M33.44,20a1.23,1.23,0,0,1-1.59.78,1.32,1.32,0,0,1-.75-1.68,1.25,1.25,0,0,1,1.6-.76A1.31,1.31,0,0,1,33.44,20Zm-1-.89a.46.46,0,0,0-.6.29.49.49,0,0,0,.28.62.47.47,0,0,0,.6-.29A.48.48,0,0,0,32.43,19.08Z"/><path d="M36.4,26.84a.4.4,0,0,1-.52.28.43.43,0,0,1-.21-.58.4.4,0,0,1,.52-.28A.42.42,0,0,1,36.4,26.84Z"/><path d="M39,26.12a.39.39,0,0,1,.52-.29.41.41,0,0,1,.22.56.39.39,0,0,1-.53.29A.41.41,0,0,1,39,26.12Z"/><path d="M29.74,28.13a.39.39,0,0,1,.51-.29.41.41,0,0,1,.22.57.39.39,0,0,1-.52.29A.41.41,0,0,1,29.74,28.13Z"/><path d="M37.81,19.9a.37.37,0,0,1-.48.24.5.5,0,0,1-.31-.61.39.39,0,0,1,.49-.24A.5.5,0,0,1,37.81,19.9Z"/><path d="M38.7,21.69a.5.5,0,0,1-.31-.59.39.39,0,0,1,.5-.25.51.51,0,0,1,.3.6A.38.38,0,0,1,38.7,21.69Z"/><path d="M36.44,22.42a.49.49,0,0,1-.31-.59.38.38,0,0,1,.5-.25.51.51,0,0,1,.3.6A.38.38,0,0,1,36.44,22.42Z"/><path d="M19.45,31.33a1.32,1.32,0,0,1-.73-1.69,1.25,1.25,0,0,1,1.59-.75,1.32,1.32,0,0,1,.75,1.66A1.25,1.25,0,0,1,19.45,31.33ZM20,29.66a.47.47,0,0,0-.61.31.49.49,0,0,0,.28.6.46.46,0,0,0,.61-.3A.49.49,0,0,0,20,29.66Z"/><path d="M15.3,31.16a.3.3,0,0,1-.4.23.32.32,0,0,1-.17-.45.3.3,0,0,1,.4-.22A.32.32,0,0,1,15.3,31.16Z"/><path d="M21.71,32.51a8.61,8.61,0,0,1-.8-.55,1.72,1.72,0,0,1-.64.52h0l.49.37.55.35a.38.38,0,0,0,.57-.13A.41.41,0,0,0,21.71,32.51Z"/><path d="M33.46,31.19a1.32,1.32,0,0,1-.73-1.69,1.25,1.25,0,0,1,1.59-.75,1.32,1.32,0,0,1,.75,1.66A1.25,1.25,0,0,1,33.46,31.19Zm.59-1.67a.47.47,0,0,0-.61.31.49.49,0,0,0,.28.6.46.46,0,0,0,.61-.3A.49.49,0,0,0,34.05,29.52Z"/></svg>