<svg id="Слой_1" data-name="Слой 1" xmlns="http://www.w3.org/2000/svg" viewBox="0 0 50 50"><defs><style>.cls-1{fill:#ffed00;}</style></defs><title>pastu</title><polygon class="cls-1" points="19.11 19.98 21.21 19.13 25.41 18.88 25.27 17.92 20.39 17.92 17.97 17.6 17.97 16.74 20.54 16.17 24.09 16.39 25.41 16.17 25.41 15.32 21.92 15.14 18.76 15.14 18.4 14.04 20.93 13.4 26.55 13.04 29.79 13.36 31.67 15.78 41.03 15.71 42.06 15.96 42.06 18.17 31.6 18.66 29.79 20.83 23.52 21.19 18.9 20.51 19.11 19.98"/><polygon class="cls-1" points="13.18 36.44 11.25 33.28 7.38 32.87 6.22 29.51 12.16 28.59 15.81 26.25 19.53 26.25 23.73 23.61 28.54 23.13 33.61 24.76 35.58 26.14 38.43 26.88 40.62 28.26 43.39 29.51 43.1 32.69 38.46 33.39 36.28 36.89 18.62 37.3 13.18 36.44"/><path d="M44.07,30.49a2.53,2.53,0,0,0-2.59-2,.86.86,0,0,1-.54-.23,8.18,8.18,0,0,0-5.49-2.43.91.91,0,0,1-.48-.22,11.09,11.09,0,0,0-13.42-.92c-.32.21-.64.45-1,.68v-3.7c.45.11.91,0,1.28.35.09.1.38,0,.58,0A3.56,3.56,0,0,1,23,21.9c1.54.13,3.09.31,4.63.43a4.3,4.3,0,0,0,4.2-2.46.52.52,0,0,1,.58-.4c2.94,0,5.89,0,8.83,0a2,2,0,0,0,.38-3.91,3.12,3.12,0,0,0-.67,0H32.33c-.13,0-.35-.08-.38-.17a4.38,4.38,0,0,0-4.52-2.66c-1.18.11-2.37.25-3.56.33-.54,0-1.09.27-1.64,0a.37.37,0,0,0-.35,0c-.31.32-.71.25-1.08.29a.58.58,0,0,1-.39-.15c-.27-.26-.72-.29-.87,0s-.38.3-.64.33a3.61,3.61,0,0,0-.72.14,1,1,0,0,0-.76,1.15,1.34,1.34,0,0,0,1.25,1.12c.19,0,.38,0,.56,0s.11.1.16.15-.1.1-.16.11-.3,0-.45,0a1.37,1.37,0,0,0-1.37,1.21,1.35,1.35,0,0,0,1.37,1.37h.59l0,.11c-.07.06-.14.15-.22.16s-.35,0-.52,0a1.33,1.33,0,0,0-1.27,1.27c0,.6.51,1.05,1.26,1.12l.7.07V26l-.32,0a7.85,7.85,0,0,0-6.61,1.77c-.55.46-1.05,1-1.85.85-.29,0-.46.13-.49.43a.52.52,0,0,0,.45.59,1.9,1.9,0,0,0,.45,0H41.68A1.4,1.4,0,0,1,43,30.86a1.39,1.39,0,0,1-1,1.49,3.24,3.24,0,0,1-.74.06H8.84c-.17,0-.35,0-.52,0a1.34,1.34,0,0,1-1.16-.92,1.39,1.39,0,0,1,1.21-1.86c.4-.06.63-.29.6-.62s-.71-.47-1.12-.43a2.1,2.1,0,0,0-1.37.35C5.5,29.45,6,31.47,6,31.5a2.92,2.92,0,0,0,2.7,2c.63,0,1.27,0,1.9,0a.51.51,0,0,1,.36.22c.25.45.47.9.68,1.37a3.66,3.66,0,0,0,1.68,1.73,7.24,7.24,0,0,0,3.49.77H33.67c1.42,0,4.18,0,4.92-2.8.14-.35.35-.69.5-1a.39.39,0,0,1,.43-.26q1,0,2.09,0A2.5,2.5,0,0,0,44,31.9c.06-.16.11-.33.16-.49v-.82A.69.69,0,0,1,44.07,30.49ZM32.14,16.66l.3,0h8.68c.73,0,1.17.55.94,1.15a.78.78,0,0,1-.73.55H32.14ZM23,17.34c.5,0,1,0,1.49,0a2.45,2.45,0,0,0,.59-.06,1.26,1.26,0,0,0,1-1.26,1.28,1.28,0,0,0-1.17-1.16c-.58-.05-1.16,0-1.75,0H22.7v-.54L24,14.15c1.21-.12,2.42-.24,3.63-.35a3.46,3.46,0,0,1,2.1.51A2.47,2.47,0,0,1,31,16.59c0,.54,0,1.09,0,1.64a2.68,2.68,0,0,1-2.33,2.86,7.61,7.61,0,0,1-2,0c-1.33-.1-2.66-.25-4-.38V20.2h1.42a5.19,5.19,0,0,0,.78,0,1.29,1.29,0,0,0,1.17-1.28,1.32,1.32,0,0,0-1.31-1.19c-.6,0-1.19,0-1.79,0-.1,0-.2-.11-.29-.16C22.78,17.45,22.88,17.34,23,17.34Zm-.29-1.25c.06,0,.11-.13.17-.13.61,0,1.21,0,1.81,0a1,1,0,0,1,.26.09s0,.06,0,.08a.84.84,0,0,1-.26.08c-.59,0-1.19,0-1.78,0C22.82,16.2,22.75,16.13,22.69,16.09Zm0,2.75h2.26C24.63,19.17,22.81,19.15,22.69,18.84Zm-3.38-1.18-.76-.06v-.2c.26,0,.52,0,.78,0,0,0,.07.12.07.19S19.34,17.66,19.31,17.66Zm-1,10.16a.44.44,0,0,1-.32.11,5.19,5.19,0,0,0-2.3.31,3.62,3.62,0,0,1-1.52.24H13.4c.6-1.05,3.78-1.88,5.5-1.41C18.71,27.35,18.55,27.6,18.36,27.83Zm3.17-7.22c-.29,0-.56,0-.83-.09-.06,0-.13-.12-.14-.19s.1-.12.16-.13c.26,0,.51,0,.81,0Zm-1-1.8h1c0,.26,0,.27-.61.25C20.77,19.06,20.51,19.17,20.57,18.81Zm.15-4.34c.26,0,.53-.06.82-.09,0,.15,0,.25,0,.42-.3,0-.58,0-.85,0-.06,0-.16-.11-.15-.15A.27.27,0,0,1,20.72,14.47ZM21,15.95a2.26,2.26,0,0,1,.52.12l-.5.2-.5-.19A1.79,1.79,0,0,1,21,15.95Zm-.31,1.4c.26,0,.53,0,.8,0l.07.14c-.08.06-.15.18-.23.19a2.73,2.73,0,0,1-.62,0c-.07,0-.13-.1-.19-.16S20.66,17.35,20.72,17.34Zm5.65,11.12a4.37,4.37,0,0,1,2.49,0Zm4.89-.28a6.87,6.87,0,0,0-7.48.11,1.45,1.45,0,0,1-.62.18c-.35,0-.71,0-1.15,0a7.8,7.8,0,0,1,11.24,0A4.18,4.18,0,0,1,31.26,28.19Zm3.73.29a.68.68,0,0,1-.38-.24,8.68,8.68,0,0,0-5.68-3.18,8.74,8.74,0,0,0-8,3,1.13,1.13,0,0,1-1.07.47c-.14,0-.29,0-.54,0a10,10,0,0,1,16.68,0A9,9,0,0,1,35,28.47Zm2.7,0a1.14,1.14,0,0,1-.61-.42,10.34,10.34,0,0,1-.67-1,5.9,5.9,0,0,1,3,1.42C38.82,28.48,38.24,28.52,37.69,28.46Zm-.23,6.12a2.47,2.47,0,0,1-1.31,1.32,4.86,4.86,0,0,1-1.19.42c-.52.09-1.05.11-1.58.15l-4.09,0H16.86c-.27,0-.55,0-.82,0a3.89,3.89,0,0,1-3.86-2.92H38C37.77,33.92,37.59,34.24,37.45,34.58Z"/><rect x="8.2" y="28.52" width="3.99" height="1.04"/></svg>