<svg id="Слой_1" data-name="Слой 1" xmlns="http://www.w3.org/2000/svg" viewBox="0 0 50 50"><defs><style>.cls-1{fill:#ffed00;}</style></defs><title>pizza</title><path class="cls-1" d="M38.12,23.82a6.49,6.49,0,0,0-3-.79c-2,1.32-5.45,1.39-7.31,1.67a2.63,2.63,0,0,1-1.23-.1.58.58,0,0,1-.32.23,1.71,1.71,0,0,1-.53.12c-.63.09-1-.71-.59-1a2.73,2.73,0,0,1,.06-.58c.27-.74.42-1.82.73-2.8a1.63,1.63,0,0,1,.09-.24c.26-1.2.94-2.31,1.23-3.48.16-.63.06-1.16.45-1.43.18-.45.38-.91.53-1.37,0-.09,0-.17,0-.26a3.53,3.53,0,0,1,.21-.81,2.57,2.57,0,0,0-.11-1.14,13,13,0,0,0-3.72-.55A13.81,13.81,0,0,0,11.14,25.33,13.81,13.81,0,0,0,24.67,39.41,13.81,13.81,0,0,0,38.21,25.33,14.56,14.56,0,0,0,38.12,23.82Z"/><path class="cls-1" d="M28.45,22s2.23-8.28,4.22-13.2c7.41,2.05,8.7,10.86,8.7,10.86Z"/><path d="M25.31,24.66l.25,0,12-2.2c.44-.08.65.08.72.53A15,15,0,0,1,38.23,28a14.78,14.78,0,0,1-1.7,4.64,13.9,13.9,0,0,1-12.64,7.08,13.15,13.15,0,0,1-5.1-1.28,13.77,13.77,0,0,1-5.76-5A14.92,14.92,0,0,1,11.85,19.4a14,14,0,0,1,11.46-8.46,13.2,13.2,0,0,1,5.93.79.53.53,0,0,1,.33.78L25.39,24.43ZM13.92,27.8l0,.1a11.43,11.43,0,0,0,2.18,4.6,11.06,11.06,0,0,0,3.11,2.7.52.52,0,0,1,.22.72.49.49,0,0,1-.72.17c-.24-.14-.48-.29-.71-.45a12.1,12.1,0,0,1-4.68-6.21c-.16-.47-.28-1-.42-1.44l-1,.18a13.6,13.6,0,0,0,3.4,6.56,12.6,12.6,0,0,0,4.34,3l.08-.23L23.3,27.38c0-.07,0-.14.08-.21A.49.49,0,0,1,24,26.9a.52.52,0,0,1,.31.61c0,.07,0,.14-.07.22L21.37,35.9l-.08.23c.4.1.78.21,1.17.29a10.35,10.35,0,0,0,4.35,0,11.19,11.19,0,0,0,3.13-1.22.48.48,0,0,1,.72.18.51.51,0,0,1-.25.72c-.56.28-1.11.58-1.69.81a11.2,11.2,0,0,1-6.7.51c-.35-.08-.7-.18-1.06-.27l-.31.89s0,.07,0,.11a12.31,12.31,0,0,0,6.65.34,12.53,12.53,0,0,0,5.2-2.52l-.1-.12-5.24-6.49-1.59-2a.53.53,0,0,1-.07-.61.45.45,0,0,1,.5-.24.81.81,0,0,1,.37.25l4.34,5.36,1.23,1.52.11-.1a11.17,11.17,0,0,0,2.25-3.14,11.38,11.38,0,0,0,1.09-3.82c0-.42.06-.85.07-1.28a.54.54,0,0,1,.24-.47.45.45,0,0,1,.5,0,.52.52,0,0,1,.25.5A12.65,12.65,0,0,1,36,28.69a12.33,12.33,0,0,1-2.59,4.88c-.26.3-.54.58-.81.88l.06.09.59.72a13.48,13.48,0,0,0,3.48-5.4,13.67,13.67,0,0,0,.65-6.33l-.19,0-9.6,1.74-2.88.52c-.47.08-.75-.27-.59-.74l.06-.17,3.56-10.16.08-.23c-.4-.1-.77-.2-1.15-.28a10.27,10.27,0,0,0-4.33,0,10.64,10.64,0,0,0-3,1.14.8.8,0,0,1-.4.11.45.45,0,0,1-.42-.39.52.52,0,0,1,.25-.56c.39-.21.78-.42,1.19-.6a11.31,11.31,0,0,1,6.9-.73c.43.09.85.21,1.28.32l.35-1a12.33,12.33,0,0,0-6.6-.35,12.66,12.66,0,0,0-5.26,2.53l.12.15,4.63,5.73,2.18,2.69a.53.53,0,0,1,0,.74A.49.49,0,0,1,22.8,24l-.14-.17-5.37-6.65L17.17,17l-.09.08a11.24,11.24,0,0,0-2,2.73A11.75,11.75,0,0,0,14,22.58a12.39,12.39,0,0,0-.33,2.71.82.82,0,0,1-.05.31.47.47,0,0,1-.56.28.5.5,0,0,1-.38-.53A12.66,12.66,0,0,1,16,16.81l.56-.59-.33-.41-.34-.41a13.41,13.41,0,0,0-3.45,5.32,13.79,13.79,0,0,0-.67,6.43l.16,0,9.25-1.69,1.22-.22a.5.5,0,0,1,.6.54c0,.27-.19.44-.51.5l-5.6,1Z"/><path d="M30,15.45,32.21,9a1,1,0,0,1,.2-.36A.47.47,0,0,1,33,8.6a13.54,13.54,0,0,1,3.46,1.94,14.35,14.35,0,0,1,5.12,7.71c.12.43.2.88.29,1.32a.52.52,0,0,1-.47.71l-7.85,1.42-5.2.94a.53.53,0,0,1-.53-.14.54.54,0,0,1-.1-.59l.93-2.64Zm8.82,4.25c-.09-.33-.17-.63-.26-.93a11,11,0,0,0-3.26-5.16c-.51-.45-1.08-.82-1.63-1.22a.52.52,0,0,1-.16-.71.49.49,0,0,1,.7-.16l.5.33a12.15,12.15,0,0,1,4.79,6.56c.11.37.21.74.31,1.12l1-.18a13.58,13.58,0,0,0-3-6.06A12.79,12.79,0,0,0,33,9.74L28.91,21.49Z"/><path d="M24.85,33.42a1.69,1.69,0,0,1-.94-2.16,1.59,1.59,0,0,1,2-1,1.68,1.68,0,0,1,1,2.12A1.59,1.59,0,0,1,24.85,33.42Zm.76-2.13a.59.59,0,0,0-.77.39.63.63,0,0,0,.36.77.59.59,0,0,0,.78-.38A.62.62,0,0,0,25.6,31.28Z"/><path d="M33.3,30.06a1.59,1.59,0,0,1-2,1.05,1.69,1.69,0,0,1-1-2.15,1.58,1.58,0,0,1,2-1A1.65,1.65,0,0,1,33.3,30.06Zm-1-.31A.64.64,0,0,0,32,29a.6.6,0,0,0-.77.39.62.62,0,0,0,.36.78A.58.58,0,0,0,32.35,29.76Z"/><path d="M25.13,18.31a1.57,1.57,0,0,1-2,1,1.68,1.68,0,0,1-1-2.14,1.59,1.59,0,0,1,2-1A1.67,1.67,0,0,1,25.13,18.31Zm-1.29-1.13a.58.58,0,0,0-.77.37.63.63,0,0,0,.35.79A.59.59,0,0,0,24.2,18,.62.62,0,0,0,23.84,17.17Z"/><path d="M18.48,28.33a1.67,1.67,0,0,1,.94,2.12,1.59,1.59,0,0,1-2,1,1.68,1.68,0,0,1-.94-2.13A1.58,1.58,0,0,1,18.48,28.33Zm-.76,2.13a.6.6,0,0,0,.78-.39.64.64,0,0,0-.38-.78.6.6,0,0,0-.77.39A.64.64,0,0,0,17.72,30.46Z"/><path d="M28.92,27.09a.51.51,0,0,1-.67.36A.54.54,0,0,1,28,26.7a.51.51,0,0,1,.66-.35A.54.54,0,0,1,28.92,27.09Z"/><path d="M32.21,26.16a.5.5,0,0,1,.66-.37.53.53,0,0,1,.28.72.5.5,0,0,1-.67.37A.53.53,0,0,1,32.21,26.16Z"/><path d="M19.66,23.48a.5.5,0,0,1-.66.37.53.53,0,0,1-.28-.74.5.5,0,0,1,.66-.36A.53.53,0,0,1,19.66,23.48Z"/><path d="M20.8,28.74a.49.49,0,0,1,.65-.38.52.52,0,0,1,.28.73.5.5,0,0,1-.66.37A.53.53,0,0,1,20.8,28.74Z"/><path d="M23.9,35.12a.39.39,0,0,1,.51-.29.42.42,0,0,1,.22.58.38.38,0,0,1-.52.28A.41.41,0,0,1,23.9,35.12Z"/><path d="M21,36.22a.4.4,0,0,1-.51.29.42.42,0,0,1-.22-.56.39.39,0,0,1,.34-.32.37.37,0,0,1,.37.19A.45.45,0,0,1,21,36.22Z"/><path d="M15.73,23.41a.49.49,0,0,1,.65-.35.54.54,0,0,1,.27.73.5.5,0,0,1-.66.37A.54.54,0,0,1,15.73,23.41Z"/><path d="M17.54,21.24a.51.51,0,0,1-.66.38.54.54,0,0,1-.27-.74.49.49,0,0,1,.65-.36A.52.52,0,0,1,17.54,21.24Z"/><path d="M18.15,34.69a.39.39,0,0,1-.51.29.41.41,0,0,1-.22-.57.39.39,0,0,1,.51-.28A.41.41,0,0,1,18.15,34.69Z"/><path d="M34.08,15.58a.47.47,0,0,1-.61.31.64.64,0,0,1-.4-.78.5.5,0,0,1,.62-.3A.64.64,0,0,1,34.08,15.58Z"/><path d="M35.22,17.87a.64.64,0,0,1-.39-.75.49.49,0,0,1,.64-.32.65.65,0,0,1,.38.76A.48.48,0,0,1,35.22,17.87Z"/><path d="M32.34,18.79a.63.63,0,0,1-.4-.75.49.49,0,0,1,.64-.32.65.65,0,0,1,.38.76A.48.48,0,0,1,32.34,18.79Z"/></svg>