<svg id="Слой_1" data-name="Слой 1" xmlns="http://www.w3.org/2000/svg" viewBox="0 0 50 50"><defs><style>.cls-1{fill:#ffed00;}.cls-2{fill:none;stroke:#000;stroke-miterlimit:10;}</style></defs><title>set</title><polygon class="cls-1" points="12.96 36.1 7.98 20.69 10 20.07 9.26 13.29 13.61 12.47 13.61 10.79 17.93 10.79 18.26 12.47 22.41 12.39 23.23 10.79 27.58 11.28 27.38 14.49 31.79 14.9 30.83 19.83 32.06 19.79 34.61 12.64 33.99 7.95 36.34 6.55 39.38 7.42 39.66 9.35 39.09 10.54 39.38 14.61 41.6 19.66 42.05 22.7 41.1 29.32 42.05 34.25 40.69 36.31 33.54 36.55 31.57 35.61 32.23 28.91 32.06 25.09 31.03 27.64 28.86 33.68 28.36 35.77 26.56 36.31 12.96 36.1"/><path d="M36.85,37.15c-1.37-.12-2.72-.17-4-.38A1.84,1.84,0,0,1,31,34.5a26.8,26.8,0,0,1,.45-3.37,14.31,14.31,0,0,0-.1-6.09,10,10,0,0,1,.94-7.62c.4-.7.69-1.46,1-2.19A9.38,9.38,0,0,0,34,10.77a.81.81,0,0,0-.2-.47,3.06,3.06,0,0,1-.43-2.39,1.06,1.06,0,0,1,.41-.6,5.15,5.15,0,0,1,6.14,0A2.65,2.65,0,0,1,40,10.16a2.27,2.27,0,0,0-.32.95,9.16,9.16,0,0,0,1.26,5.59c.17.31.3.64.47,1a9.31,9.31,0,0,1,.88,7,18.67,18.67,0,0,0,.15,8.26,9.66,9.66,0,0,1,.13,1.73c0,1.27-.4,1.91-1.66,2.13S38.18,37,36.85,37.15Zm0-1.32c1.15-.08,2.36-.14,3.56-.25a.9.9,0,0,0,.9-1.13c-.08-.63-.08-1.27-.22-1.88A17.74,17.74,0,0,1,41,24.38a8.22,8.22,0,0,0-.75-6.09c-1.22-2.21-2.19-4.5-1.93-7.13.06-.56-.33-.64-.8-.6a8.13,8.13,0,0,1-1.48,0c-.57-.06-.85.07-.85.7a8.48,8.48,0,0,1-.13,2.48,32.82,32.82,0,0,1-1.81,4.55,8.43,8.43,0,0,0-.81,5.58A18.89,18.89,0,0,1,32.81,31c-.19,1.14-.32,2.3-.5,3.45-.12.79.27,1.14,1,1.2C34.46,35.69,35.62,35.75,36.85,35.83ZM36.73,9.62l.33-.37c.22-.27.38-.71.65-.79.5-.13.63.34.75.74,0,.08.32.07.5.1,0-.38.11-.88-.08-1.12-.67-.84-3.44-.85-4.15,0-.18.21-.14.65-.14,1,0,.1.18.21.27.31a4,4,0,0,1,.41-.64c.16-.17.39-.38.58-.37a.94.94,0,0,1,.57.39A3.35,3.35,0,0,1,36.73,9.62Z"/><path d="M31.74,24.42a4.9,4.9,0,0,1-.21-.71l-1,3.07c-.32,1-.65,2-1,3q-.7,2.2-1.38,4.39c-.14.44-.27.88-.42,1.32,0,.06-.14.11-.22.15a.39.39,0,0,1-.15,0H13.8c-.24,0-.33,0-.4-.27-.44-1.44-.92-2.88-1.38-4.32-.66-2.09-1.31-4.18-2-6.28-.39-1.24-.8-2.49-1.2-3.73,0-.08,0-.16-.06-.26h3.57a.37.37,0,0,1,.27.17,7.21,7.21,0,0,0,1.89,2.52,8,8,0,0,0,4.46,2,15,15,0,0,0,2.54.1A8.57,8.57,0,0,0,26.11,24a7.5,7.5,0,0,0,2.47-3,.37.37,0,0,1,.27-.18h2.52a2.2,2.2,0,0,1,.38-1.09h-.31c.11-.54.23-1,.33-1.56l.5-2.42a3.39,3.39,0,0,1,.13-.62c.2-.49-.17-.79-.74-.84L28.57,14l-.83-.06c0-.23,0-.44,0-.66.05-.49.12-1,.17-1.47a5.37,5.37,0,0,0,.06-.61.57.57,0,0,0-.52-.56c-.54-.07-1.08-.11-1.61-.16l-1.81-.2-.47-.06h-.88c-.44.28-.34.72-.41,1.11,0,.18,0,.36-.05.55H18.67a7,7,0,0,1-.12-.89.71.71,0,0,0-.54-.77h-.77a.38.38,0,0,1-.12,0l-2,.06-1.58.05a.65.65,0,0,0-.68.83,8.75,8.75,0,0,1,.07.88l-1.3.22c-.91.15-1.83.3-2.74.47a.54.54,0,0,0-.49.59c.12.71.26,1.42.38,2.13.09.51.17,1,.25,1.54s.17,1,.26,1.54.14.79.21,1.21c-.48,0-.95,0-1.41,0s-.94.31-.75.87c.33,1,.64,2,1,3,.63,2,1.27,4,1.9,5.95.7,2.21,1.39,4.43,2.09,6.64a.86.86,0,0,0,.46.6H28.44c.44-.22.46-.64.58-1,.41-1.26.79-2.52,1.19-3.78l1.29-4.07.81-2.54A3,3,0,0,1,31.74,24.42ZM27.63,15l1.72.16c.46,0,.92.11,1.38.14.29,0,.36.07.31.31L30.27,19c0,.22-.08.43-.12.67H28.31a.68.68,0,0,0-.75.47c-.15.36-.33.71-.5,1.07l-.09,0Zm-5,7.29c0-.46.08-.92.12-1.38.08-.83.16-1.65.23-2.48,0-.53.07-1.06.12-1.59.07-.77.16-1.53.23-2.29,0-.49.08-1,.12-1.48s.08-1,.12-1.56a.63.63,0,0,1,.08-.19l3.08.31c-.05.46-.11.92-.16,1.37-.08.7-.16,1.41-.23,2.11,0,.46-.07.92-.12,1.38-.07.64-.16,1.29-.23,1.93,0,.45-.08.9-.12,1.35-.07.67-.15,1.34-.23,2a3.22,3.22,0,0,0-.05.72.72.72,0,0,1-.41.7,7.51,7.51,0,0,1-2.75,1.11C22.47,23.62,22.54,23,22.6,22.29Zm-.44-9.37c0,.28-.06.56-.09.83-.08.84-.16,1.69-.23,2.53,0,.55-.07,1.11-.12,1.67-.07.74-.16,1.48-.23,2.22-.05.55-.07,1.09-.12,1.64-.07.73-.16,1.46-.23,2.19,0,.15,0,.31,0,.48h-1L18.78,12.93Zm-6.41-1.57,1.34-.05c.18,0,.25.07.26.2.06.6.11,1.19.18,1.79s.2,1.45.29,2.18c.05.42.08.83.12,1.25.07.58.16,1.17.23,1.75,0,.41.08.82.12,1.22.07.61.15,1.22.23,1.83,0,.37.08.75.12,1.12s.12.93.17,1.4a2.47,2.47,0,0,1,0,.28,7.7,7.7,0,0,1-2.73-1.09,1.23,1.23,0,0,1-.71-1.06,22.34,22.34,0,0,0-.27-2.23c-.07-.6-.11-1.21-.18-1.81s-.16-1.2-.23-1.8c0-.41-.08-.82-.12-1.22-.07-.61-.16-1.22-.23-1.83,0-.41-.08-.82-.12-1.22,0-.2,0-.41-.07-.63ZM13.1,13.15c0,.44.09.88.14,1.31.07.61.16,1.22.23,1.83,0,.39.08.78.12,1.17.07.64.16,1.27.23,1.91.05.46.09.92.13,1.38l-.05,0-.25-.58a.71.71,0,0,0-.77-.46H11c-.22,0-.27-.06-.29-.25-.08-.62-.2-1.24-.31-1.86L10.17,16l-.26-1.54-.13-.81Z"/><line class="cls-2" x1="31.79" y1="22.28" x2="41.3" y2="22.28"/><line class="cls-2" x1="32.05" y1="27.8" x2="41.56" y2="27.8"/></svg>